<svg width="32" height="33" viewBox="0 0 32 33" fill="none" xmlns="http://www.w3.org/2000/svg">
<path fill-rule="evenodd" clip-rule="evenodd" d="M3.17549 8.68731L3.3369 8.50573C3.92846 7.88714 4.80974 7.57764 5.97994 7.57764H26.0348C27.1376 7.57764 27.985 7.84678 28.577 8.38467L28.5972 8.40485C28.7182 8.51259 28.8397 8.6401 28.9603 8.78819C28.9603 8.80191 28.9672 8.81523 28.9805 8.82854L29.0007 8.84872C29.445 9.40033 29.6665 10.1803 29.6665 11.1891V22.6087C29.6532 25.0298 28.4426 26.2404 26.0348 26.2404H5.97994C3.57215 26.2271 2.36845 25.0165 2.36845 22.6087V11.1891C2.36845 10.0996 2.6376 9.26555 3.17549 8.68731ZM26.7006 9.55488C26.4989 9.50121 26.2769 9.48063 26.0352 9.49435H5.97994C5.83185 9.48103 5.69062 9.48749 5.55625 9.51453L15.9469 20.0464L26.7006 9.55488ZM4.28517 10.9672C4.27185 11.0346 4.27185 11.1084 4.28517 11.1891V22.6087C4.28517 23.7523 4.85009 24.3237 5.97994 24.3237H26.0348C27.178 24.3237 27.7498 23.7523 27.7498 22.6087V11.2093L16.6127 22.0841C16.4109 22.2726 16.1825 22.3666 15.9271 22.3666C15.6579 22.3533 15.4291 22.2589 15.2411 22.0841L4.28517 10.9672Z" fill="#FF7500"/>
<path fill-rule="evenodd" clip-rule="evenodd" d="M3.17563 8.68691C3.20249 8.64681 3.23577 8.60671 3.27587 8.56662C3.28951 8.53975 3.30915 8.5197 3.33602 8.50647L3.17563 8.68691Z" fill="#FF7500"/>
</svg>
