<svg width="29" height="35" viewBox="0 0 29 35" fill="none" xmlns="http://www.w3.org/2000/svg">
<path d="M11.1083 34.1909C10.7893 34.1909 10.4993 34.0459 10.2962 33.8139C9.25212 32.6247 0 22.0964 0 16.2957C0 10.176 4.98861 5.18738 11.1083 5.18738C17.2281 5.18738 22.2167 10.176 22.2167 16.2957C22.2167 22.0674 12.9646 32.6247 11.9204 33.8139C11.7174 34.0459 11.4274 34.1909 11.1083 34.1909ZM11.1083 7.39165C6.20675 7.39165 2.20427 11.3941 2.20427 16.2957C2.20427 20.1242 8.03397 27.7521 11.1083 31.4066C14.1827 27.7811 20.0124 20.1242 20.0124 16.2957C20.0124 11.3941 16.0099 7.39165 11.1083 7.39165Z" fill="#FF7500"/>
<path d="M11.1077 22.0093C8.03334 22.0093 5.53903 19.515 5.53903 16.4406C5.53903 13.3663 8.03334 10.8719 11.1077 10.8719C14.1821 10.8719 16.6764 13.3663 16.6764 16.4406C16.6764 19.515 14.1821 22.0093 11.1077 22.0093ZM11.1077 13.0762C9.25148 13.0762 7.7433 14.5844 7.7433 16.4406C7.7433 18.2968 9.25148 19.805 11.1077 19.805C12.9639 19.805 14.4721 18.2968 14.4721 16.4406C14.4721 14.5844 12.9639 13.0762 11.1077 13.0762Z" fill="#FF7500"/>
</svg>
