<svg width="29" height="30" viewBox="0 0 29 30" fill="none" xmlns="http://www.w3.org/2000/svg">
<g clip-path="url(#clip0_1_174)">
<path d="M15.5347 8.56876C16.9537 8.81235 18.2509 9.48362 19.2847 10.5146C20.3129 11.5428 20.987 12.84 21.2306 14.2618C21.324 14.8226 21.8055 15.2277 22.3748 15.2277C22.4485 15.2277 22.5136 15.2192 22.5589 15.2107C22.5618 15.2107 22.5646 15.2107 22.5674 15.2078C22.8762 15.1569 23.1452 14.9898 23.3237 14.732C23.5021 14.4771 23.5701 14.1712 23.5163 13.8681C23.1934 11.9704 22.2984 10.2427 20.9247 8.86899C19.5453 7.49529 17.8147 6.60026 15.9199 6.2802H15.917C15.2854 6.17541 14.6878 6.60309 14.583 7.23188C14.4838 7.86633 14.9087 8.46396 15.5347 8.56876Z" fill="#FF7500"/>
<path d="M22.6734 18.2952C22.039 17.6353 21.2714 17.2869 20.4529 17.2869C19.6428 17.2869 18.8696 17.6296 18.2209 18.2811L16.6093 19.8927C16.5697 19.8729 16.53 19.8531 16.4932 19.8332L16.4111 19.7936C16.2383 19.7058 16.04 19.6066 15.8757 19.5047C14.2216 18.4539 12.712 17.0773 11.2561 15.2929C10.633 14.5084 10.1968 13.8428 9.87676 13.18C10.2818 12.7976 10.6585 12.4152 11.0125 12.0527C11.0919 11.9734 11.1712 11.8912 11.2533 11.8091C11.3326 11.727 11.4147 11.6448 11.4969 11.5627C12.171 10.8886 12.5279 10.1069 12.525 9.30246C12.525 8.5009 12.1682 7.72199 11.4969 7.05355L9.93058 5.48725C9.83994 5.39661 9.74931 5.30598 9.6615 5.21534C9.5737 5.12471 9.48306 5.03407 9.39526 4.94627L9.27063 4.81881C8.96191 4.50442 8.64185 4.17869 8.31896 3.88129C7.69017 3.25534 6.92826 2.92395 6.12103 2.92395C5.31664 2.92395 4.54907 3.25534 3.89479 3.88129C3.89195 3.88413 3.88912 3.88413 3.88912 3.88696L1.92629 5.84696C1.12472 6.64852 0.668711 7.62569 0.569578 8.75015V8.75298C0.46478 10.0842 0.705532 11.4891 1.32865 13.1743C2.27184 15.7235 3.68802 18.0857 5.78115 20.6065C8.33595 23.6513 11.4034 26.0531 14.8957 27.7441H14.8986C16.2439 28.387 18.051 29.1404 20.0903 29.2735C20.0931 29.2735 20.096 29.2735 20.0988 29.2735H20.113C20.2291 29.2792 20.3509 29.2849 20.4783 29.2849C21.9087 29.2849 23.1153 28.7665 24.0613 27.7441L24.0755 27.7299C24.0868 27.7186 24.0953 27.7101 24.1038 27.6987C24.387 27.3589 24.7127 27.0445 25.0781 26.6932C25.3302 26.4525 25.5879 26.2061 25.8372 25.9398C26.4801 25.2686 26.82 24.4868 26.8172 23.6796C26.8144 22.8695 26.4688 22.0963 25.8174 21.4449L22.6734 18.2952ZM22.3619 26.1891C21.8577 26.7272 21.2799 26.968 20.4925 26.968C20.4189 26.968 20.3367 26.9623 20.2518 26.9567C18.6203 26.8519 17.0767 26.2061 15.9154 25.6538C12.7091 24.1101 9.89942 21.9122 7.56271 19.1195C5.65086 16.8167 4.36213 14.6698 3.50958 12.3699C2.99976 11.0019 2.80715 9.94258 2.88646 8.94275C2.93744 8.35928 3.15554 7.89477 3.5719 7.48407L5.52057 5.5354C5.7245 5.33997 5.9341 5.23517 6.12953 5.23517C6.31363 5.23517 6.50907 5.33713 6.71583 5.53823C6.71866 5.54106 6.7215 5.5439 6.72433 5.54673C7.06138 5.86396 7.38994 6.19818 7.73832 6.54939L7.74965 6.56072C7.91676 6.73349 8.10936 6.93176 8.3048 7.12153L9.86827 8.685C10.3243 9.14101 10.3243 9.46107 9.86827 9.91708C9.70399 10.0814 9.53688 10.2485 9.3726 10.4184L9.25647 10.5374C8.81745 10.9821 8.40393 11.4012 7.95358 11.8006C7.94792 11.8063 7.93942 11.8119 7.93375 11.8204L7.90543 11.8488C7.42676 12.3274 7.29647 12.8996 7.52023 13.5454C7.52589 13.5624 7.53156 13.5765 7.53722 13.5907C7.54005 13.5992 7.54289 13.6077 7.54855 13.6162C7.96774 14.6273 8.55688 15.5875 9.46324 16.7346C9.46324 16.7374 9.46607 16.7374 9.46607 16.7403C11.0749 18.7201 12.7715 20.2666 14.655 21.4618C14.9014 21.6176 15.1563 21.7479 15.3942 21.8669C15.5698 21.9547 15.7681 22.0566 15.9324 22.1558C15.9437 22.1643 15.955 22.1699 15.9664 22.1756L15.9749 22.1813C15.9919 22.1898 16.0089 22.2011 16.0287 22.2096C16.2751 22.3342 16.5187 22.3937 16.7708 22.3937C17.2013 22.3937 17.5978 22.2153 17.9179 21.8782L19.8779 19.9182C20.0195 19.7766 20.2404 19.6066 20.4727 19.6066C20.6879 19.6066 20.8975 19.7738 21.0335 19.9154C21.0363 19.9182 21.0363 19.9182 21.0392 19.921L24.2029 23.0848C24.5145 23.3964 24.7269 23.7646 24.1774 24.3424L24.1746 24.3452C24.0018 24.5321 23.8177 24.7106 23.6223 24.9003C23.5798 24.94 23.5373 24.9825 23.4948 25.025C23.0983 25.396 22.7188 25.7642 22.3619 26.1891Z" fill="#FF7500"/>
<path d="M28.4402 13.6455C27.919 10.5781 26.4689 7.77967 24.2454 5.55625C22.0135 3.33 19.2151 1.87983 16.1448 1.3615C15.5132 1.25671 14.9156 1.68439 14.8108 2.31318C14.706 2.9448 15.1337 3.54243 15.7596 3.64723C18.3569 4.08908 20.722 5.31833 22.6027 7.1962C24.4834 9.07689 25.7098 11.4419 26.1516 14.0364C26.2451 14.5972 26.7266 15.0022 27.2959 15.0022C27.2987 15.0022 27.3016 15.0022 27.3044 15.0022C27.3752 15.0022 27.4347 14.9937 27.48 14.9852C27.4829 14.9852 27.4857 14.9852 27.4885 14.9824C27.7972 14.9314 28.0663 14.7643 28.2448 14.5066C28.426 14.2545 28.494 13.9486 28.4402 13.6455Z" fill="#FF7500"/>
</g>
<defs>
<clipPath id="clip0_1_174">
<rect width="29.0035" height="29.0035" fill="white" transform="translate(0 0.813599)"/>
</clipPath>
</defs>
</svg>
