<svg width="33" height="33" viewBox="0 0 33 33" fill="none" xmlns="http://www.w3.org/2000/svg">
<g clip-path="url(#clip0_1_27)">
<path d="M33.0086 16.5042C33.0086 18.7822 32.5788 20.9204 31.7192 22.919C30.8596 24.9391 29.683 26.6959 28.1895 28.1894C26.6959 29.683 24.9391 30.8595 22.9191 31.7191C20.9205 32.5787 18.7822 33.0085 16.5043 33.0085C14.2264 33.0085 12.0881 32.5787 10.0895 31.7191C8.06948 30.8595 6.31268 29.683 4.81913 28.1894C3.32557 26.6959 2.149 24.9391 1.2894 22.919C0.429799 20.9204 0 18.7822 0 16.5042C0 14.2263 0.429799 12.0881 1.2894 10.0895C2.149 8.06944 3.32557 6.31263 4.81913 4.81908C6.31268 3.32552 8.06948 2.14895 10.0895 1.28935C12.0881 0.429749 14.2264 -4.95911e-05 16.5043 -4.95911e-05C18.7822 -4.95911e-05 20.9205 0.429749 22.9191 1.28935C24.9391 2.14895 26.6959 3.32552 28.1895 4.81908C29.683 6.31263 30.8596 8.06944 31.7192 10.0895C32.5788 12.0881 33.0086 14.2263 33.0086 16.5042Z" fill="white"/>
<path d="M15.9322 11.4642V20.5497L11.9704 16.5879C11.818 16.4228 11.6276 16.3403 11.399 16.3403C11.1704 16.3403 10.9799 16.4228 10.8276 16.5879C10.6625 16.7402 10.58 16.9275 10.58 17.1498C10.58 17.372 10.6625 17.5656 10.8276 17.7307L16.1798 23.083C16.3322 23.248 16.5195 23.3306 16.7417 23.3306C16.9639 23.3306 17.1576 23.248 17.3227 23.083L22.6749 17.7307C22.84 17.5656 22.9225 17.372 22.9225 17.1498C22.9225 16.9275 22.84 16.7402 22.6749 16.5879C22.5225 16.4228 22.3321 16.3403 22.1035 16.3403C21.8749 16.3403 21.6845 16.4228 21.5321 16.5879L17.5703 20.5497V11.4642C17.5703 11.2483 17.4909 11.061 17.3322 10.9023C17.1734 10.7436 16.9798 10.6642 16.7512 10.6642C16.5227 10.6642 16.329 10.7436 16.1703 10.9023C16.0116 11.061 15.9322 11.2483 15.9322 11.4642Z" fill="#FF7500"/>
</g>
<defs>
<clipPath id="clip0_1_27">
<rect width="33.0086" height="33.0086" fill="white" transform="matrix(1 0 0 -1 0 33.0085)"/>
</clipPath>
</defs>
</svg>
