<svg width="60" height="61" viewBox="0 0 60 61" fill="none" xmlns="http://www.w3.org/2000/svg">
<g clip-path="url(#clip0_1_278)">
<path fill-rule="evenodd" clip-rule="evenodd" d="M29.9641 13.3243C29.2825 13.3243 28.6726 12.9656 28.3855 12.3556C28.242 12.0327 28.1344 11.674 28.1344 11.2793V7.6198C28.1344 5.96944 28.1344 4.28319 28.0985 2.63282C28.0985 1.37711 28.5649 0.695434 29.6053 0.300781H30.3588C31.3992 0.695434 31.8656 1.37711 31.8297 2.66869C31.7939 4.49845 31.7939 6.36408 31.7939 8.19383V11.4946C31.7939 12.3915 31.2557 13.0732 30.3588 13.2884C30.3089 13.2884 30.2511 13.2962 30.1892 13.3045C30.1179 13.314 30.0411 13.3243 29.9641 13.3243ZM29.8924 59.0683C25.4076 59.0683 20.923 57.9202 16.5459 55.624C9.90857 52.1798 4.67044 46.9417 0.975058 40.1249C0.544528 39.3356 0.544528 38.6181 0.975058 37.8287C5.5315 29.6127 11.9895 23.8366 20.2054 20.751C23.4703 19.5312 26.7709 18.8854 30.0359 18.8854C34.5565 18.8854 39.1128 20.0693 43.5976 22.4373C50.1273 25.8815 55.2936 31.0479 58.9531 37.7928C59.0165 37.8985 59.0675 38.0165 59.1206 38.1397C59.1578 38.2257 59.1959 38.3143 59.2402 38.4027L59.3478 38.6181V39.3356C57.7333 42.744 55.3654 45.9729 52.1365 49.1661C47.6517 53.6148 42.8442 56.485 37.4984 57.992C34.951 58.7095 32.4038 59.0683 29.8924 59.0683ZM30.0717 22.6167C26.4122 22.6167 22.681 23.5136 18.9856 25.2716C13.3887 27.9266 8.79637 32.2677 4.92159 38.4746C4.70632 38.7974 4.77807 39.2997 4.95746 39.5867C7.61241 43.8562 10.8414 47.4081 14.5727 50.0988C19.3444 53.5431 24.4389 55.3011 29.7848 55.337C33.6236 55.3011 37.0679 54.5477 40.4045 53.0049C46.2884 50.2783 51.0601 45.8653 55.0067 39.5508C55.2219 39.228 55.1502 38.654 54.9707 38.3669C51.8135 33.3082 48.154 29.5051 43.7769 26.7785C39.2923 24.0159 34.6641 22.6167 30.0717 22.6167ZM16.9047 14.1494C17.2993 14.9746 18.0169 15.154 18.4115 15.1899C19.129 15.1899 19.7749 14.867 20.0978 14.3288C20.4207 13.8625 20.4566 13.2525 20.2412 12.7144C18.9856 9.73651 17.6581 6.75867 16.6176 4.53426C16.3307 3.88847 15.7208 3.49381 15.0031 3.49381C14.752 3.49381 14.4649 3.56558 14.2139 3.67321C13.2811 4.10374 12.8864 5.14419 13.2811 6.04112C14.2393 8.20397 15.2183 10.3877 16.1069 12.3691L16.1086 12.373C16.3838 12.9868 16.6502 13.5811 16.9047 14.1494ZM41.5526 15.1899C40.8351 15.1899 40.225 14.8671 39.8663 14.3289C39.5434 13.8266 39.4716 13.1808 39.7229 12.6068C39.8378 12.343 39.9527 12.078 40.068 11.8124C40.5639 10.6691 41.0644 9.51545 41.5885 8.40909C41.7057 8.15991 41.817 7.91074 41.9271 7.66401C42.0865 7.30692 42.2439 6.95463 42.4136 6.61521C42.4675 6.50759 42.5123 6.40894 42.5571 6.31029C42.6019 6.21171 42.6468 6.11284 42.7007 6.00529C42.88 5.57476 43.0952 5.10835 43.3106 4.67782C43.6334 3.96027 44.2792 3.52975 44.9969 3.52975C45.2479 3.52975 45.535 3.6015 45.7861 3.70913C46.719 4.13966 47.1136 5.18011 46.683 6.1488C45.8101 8.1763 44.8929 10.2038 43.9836 12.214L43.9819 12.2177C43.7333 12.7674 43.4852 13.3157 43.2389 13.8625L43.1311 14.1136C42.7007 14.903 42.0549 15.154 41.5526 15.1899ZM50.8089 20.2128C51.1677 20.6075 51.67 20.8586 52.2082 20.8586C52.6029 20.8586 52.9616 20.751 53.3563 20.464C55.1502 18.9213 56.944 17.2709 58.7738 15.5846C59.4554 14.9388 59.3119 14.1496 59.0967 13.6114C58.8455 12.9297 58.2356 12.5351 57.4105 12.3916C57.3566 12.4095 57.2939 12.4364 57.231 12.4633C57.1683 12.4902 57.1055 12.5171 57.0516 12.5351C56.9984 12.5587 56.9462 12.5814 56.8951 12.6036C56.6361 12.716 56.4062 12.8158 56.2265 12.9656C54.612 14.3648 52.9257 15.8717 50.9525 17.7014C50.199 18.3831 50.1631 19.4594 50.8089 20.2128ZM7.79178 20.8586C7.36126 20.8586 6.93073 20.7151 6.60783 20.3923C5.0651 19.0289 3.41473 17.558 1.33383 15.6565C0.759791 15.1183 0.580403 14.4007 0.903301 13.6473C1.19032 13.0015 1.76436 12.5351 2.58955 12.3916C2.67644 12.4495 2.78674 12.484 2.88265 12.5141C2.90545 12.5212 2.92765 12.5282 2.94832 12.5351C3.02417 12.5688 3.10002 12.6005 3.17447 12.6317C3.41693 12.7331 3.64471 12.8284 3.80939 12.9656C5.388 14.3289 7.03837 15.8 9.0475 17.6656C9.80093 18.3472 9.8368 19.4953 9.15514 20.2128C8.79637 20.6434 8.29407 20.8586 7.79178 20.8586ZM19.0573 38.9769C19.0573 45.0402 23.9726 49.9553 30 49.9553C36.0274 49.9553 40.9427 45.0402 40.9427 39.0128C40.9427 32.9494 36.0274 28.0342 30 28.0342C23.9726 28.0342 19.0573 32.9494 19.0573 38.9769ZM22.7169 39.0128C22.7169 34.9945 25.9817 31.7296 30 31.7296C34.0183 31.7296 37.2831 35.0303 37.2472 39.0487C37.2472 43.0311 33.9824 46.2959 29.9641 46.2959C25.9817 46.2959 22.7169 43.0311 22.7169 39.0128Z" fill="#FF7500"/>
</g>
<defs>
<clipPath id="clip0_1_278">
<rect width="60" height="60" fill="white" transform="translate(0 0.300781)"/>
</clipPath>
</defs>
</svg>
