<svg width="410" height="90" viewBox="0 0 410 90" fill="none" xmlns="http://www.w3.org/2000/svg">
<path d="M81.8715 90.0003C81.7138 88.375 81.5561 87.5017 81.5561 86.6345C81.544 67.9136 81.5864 49.1988 81.5197 30.4778C81.5076 27.6336 82.0291 25.3534 84.4003 23.4007C86.8564 21.3812 89.2883 19.1131 91.0166 16.4872C94.1156 11.7751 98.3849 10.9746 103.534 11.0595C115.711 11.2657 127.894 11.0171 140.072 11.2354C141.946 11.2718 144.147 12.4119 145.584 13.7157C148.799 16.6327 151.479 20.1319 154.663 23.0853C156.834 25.0987 157.695 27.2212 157.677 30.1503C157.568 44.7656 157.501 59.381 157.695 73.9962C157.744 77.7926 156.458 78.9751 152.838 78.7022C149.526 78.4475 146.173 78.5506 142.843 78.6962C140.29 78.8053 139.465 77.7077 139.538 75.2698C139.666 71.1702 139.508 67.0646 139.623 62.965C139.69 60.4847 139.065 59.2172 136.203 59.2536C125.178 59.3749 114.152 59.3203 103.127 59.2536C100.744 59.2415 99.5796 60.0359 99.6099 62.5769C99.6706 67.0524 99.6767 71.5462 99.4219 76.0096C99.337 77.4772 98.8034 79.5209 97.7542 80.2305C92.7935 83.572 87.5842 86.5375 81.8715 89.9942V90.0003ZM119.78 25.2503C119.78 25.2503 119.78 25.2382 119.78 25.2321C114.407 25.2321 109.022 25.4625 103.667 25.1472C100.107 24.941 99.149 26.3722 99.3249 29.5621C99.5311 33.2614 99.713 36.9789 99.5736 40.6782C99.4462 44.044 100.768 45.1053 104.079 45.0628C114.826 44.9173 125.572 44.9658 136.318 45.0992C138.835 45.1295 139.799 44.3229 139.744 41.8244C139.647 37.3488 139.708 32.8733 139.732 28.3978C139.744 26.3055 139.235 25.0987 136.658 25.1896C131.036 25.3898 125.402 25.2503 119.774 25.2503H119.78Z" fill="white" fill-opacity="0.1"/>
<path d="M73.3195 11.6421C68.8561 16.4573 65.363 20.5083 61.5181 24.1894C60.5236 25.1355 58.4192 25.184 56.8243 25.1961C45.2776 25.2689 33.7309 25.3417 22.1903 25.1416C19.0671 25.087 18.1332 26.124 18.1756 29.0774C18.3575 41.4306 16.8172 39.1686 28.2547 39.3202C38.6431 39.4597 49.0375 39.3384 59.4259 39.3505C60.5478 39.3505 61.6697 39.4718 63.6649 39.581C60.0081 43.6866 56.9577 47.3859 53.5616 50.7334C52.6701 51.6128 50.6931 51.631 49.2134 51.6431C40.232 51.7219 31.2505 51.7947 22.2752 51.6189C18.9943 51.5522 18.0907 52.7772 18.1271 55.9064C18.2362 65.0516 18.1271 65.0577 27.2541 65.0577C39.953 65.0577 52.6519 65.0455 65.3508 65.0758C66.8306 65.0758 68.3103 65.282 71.0878 65.4943C66.6547 70.2124 63.0827 74.1543 59.3167 77.9021C58.6496 78.5692 57.176 78.6298 56.0723 78.6298C38.8857 78.6662 21.693 78.551 4.50637 78.7087C0.837386 78.7451 -0.0237641 77.3988 0.000493612 74.0027C0.133911 54.6329 0.170298 35.2631 0.0247519 15.8933C-0.00557027 12.1758 1.17093 11.066 4.84598 11.0902C26.1382 11.2176 47.4304 11.1266 68.7287 11.1327C69.8264 11.1327 70.9301 11.3692 73.3195 11.6421Z" fill="white" fill-opacity="0.1"/>
<path d="M201.083 39.3763C213.891 39.3763 226.706 39.3218 239.514 39.5037C240.387 39.5158 241.958 41.2866 241.988 42.2812C242.194 48.8126 242.146 55.3561 241.988 61.8936C241.958 63.1914 241.369 64.7136 240.532 65.7021C237.318 69.5227 234.007 73.2826 230.484 76.8181C229.453 77.8552 227.609 78.5708 226.135 78.589C213.054 78.7224 199.974 78.7527 186.899 78.5465C185.122 78.5162 183.066 77.3639 181.671 76.1329C179.185 73.9436 177.347 71.0024 174.806 68.9041C170.785 65.5807 169.421 61.56 169.56 56.4659C169.809 47.7513 169.627 39.0306 169.621 30.31C169.621 30.0553 169.506 29.7157 169.627 29.5519C172.35 25.798 174.824 21.8137 177.917 18.3934C180.834 15.1671 182.793 10.8795 188.712 11.0251C205.759 11.4314 222.818 11.1464 239.871 11.1464C240.727 11.1464 241.588 11.2616 243.401 11.389C239.041 16.1374 235.299 20.4189 231.284 24.4275C230.484 25.228 228.652 25.1977 227.3 25.2037C215.505 25.2705 203.703 25.3614 191.908 25.1977C188.76 25.1552 187.523 26.0285 187.566 29.2669C187.699 39.91 187.675 50.5531 187.62 61.1961C187.602 63.9191 188.542 65.138 191.429 65.1016C201.174 64.9864 210.92 64.9925 220.665 65.0713C223.406 65.0956 224.662 64.1131 224.638 61.275C224.559 50.7107 225.511 51.5416 215.614 51.7842C212.315 51.8691 209.689 50.9776 207.578 48.2728C205.407 45.4893 202.909 42.9604 200.556 40.3224C200.738 40.007 200.92 39.6917 201.095 39.3703L201.083 39.3763Z" fill="white" fill-opacity="0.1"/>
<path d="M399.996 39.3522C396.443 43.4093 393.768 46.8539 390.645 49.8376C389.438 50.9898 387.243 51.5659 385.484 51.6023C376.509 51.7721 367.534 51.8024 358.558 51.6144C355.241 51.5417 354.004 52.5726 353.973 55.9627C353.901 65.0775 353.779 65.0714 362.852 65.0714C375.805 65.0714 388.753 65.0714 401.707 65.0896C403.065 65.0896 404.417 65.2291 406.922 65.3746C402.677 70.1049 399.208 74.1256 395.527 77.9402C394.89 78.6012 393.368 78.5891 392.258 78.5891C374.944 78.6315 357.636 78.5648 340.322 78.6982C337.078 78.7225 336.15 77.5399 336.168 74.441C336.265 54.6952 336.229 34.9433 336.205 15.1975C336.205 12.9961 336.192 11.195 339.322 11.2071C361.888 11.2799 384.459 11.2253 407.025 11.2253C407.516 11.2253 408.001 11.3769 409.554 11.6377C405.03 16.3922 401.052 20.7404 396.831 24.84C396.121 25.5313 394.387 25.2705 393.125 25.2705C381.585 25.2887 370.044 25.3554 358.504 25.2099C355.186 25.1674 353.889 26.3379 353.992 29.6733C354.331 41.0381 352.918 39.2733 363.622 39.3461C375.405 39.4249 387.188 39.3643 399.984 39.3643L399.996 39.3522Z" fill="white" fill-opacity="0.1"/>
<path d="M275.176 0C275.176 2.56526 275.176 3.94189 275.176 5.31852C275.188 23.6574 275.261 41.9962 275.146 60.329C275.122 63.9009 276.019 65.2351 279.925 65.1684C294.54 64.9137 309.161 65.0532 323.777 65.0775C324.874 65.0775 325.966 65.2958 328.325 65.5505C323.952 70.2929 320.368 74.3682 316.53 78.1827C315.826 78.8862 314.08 78.6557 312.812 78.6618C296.014 78.6861 279.215 78.5769 262.417 78.7346C258.644 78.771 257.65 77.4307 257.68 73.8163C257.814 54.1978 257.771 34.5794 257.668 14.961C257.656 12.1349 258.317 10.2186 260.973 8.75098C265.503 6.24636 269.815 3.34151 275.182 0.00607036L275.176 0Z" fill="white" fill-opacity="0.1"/>
</svg>
