<?xml version="1.0" encoding="utf-8"?>
<!-- Generator: Adobe Illustrator 24.1.3, SVG Export Plug-In . SVG Version: 6.00 Build 0)  -->
<svg version="1.1" id="Layer_1" xmlns="http://www.w3.org/2000/svg" xmlns:xlink="http://www.w3.org/1999/xlink" x="0px" y="0px"
	 viewBox="0 0 360 360" style="enable-background:new 0 0 360 360;" xml:space="preserve">
<style type="text/css">
	.st0{fill:#EE3326;}
	.st1{fill:#414042;}
	.st2{fill:#FFFFFF;}
</style>
<g>
	<g>
		<g>
			<path class="st0" d="M85.55,146.29v67.41h7.75v-67.41H85.55z"/>
		</g>
		<g>
			<path class="st0" d="M68.53,153.12l-5.47,5.49l30.25,30.25v-5.64h5.33L68.53,153.12z"/>
		</g>
		<g>
			<path class="st0" d="M55.84,175.46v7.75h67.41v-7.75H55.84z"/>
		</g>
		<g>
			<path class="st0" d="M110.32,152.56l-21.17,21.17l-1.73,1.73l-1.87,1.89l-22.88,22.88l5.49,5.47l17.4-17.4l3.61-3.6l1.48-1.5
				l25.16-25.16L110.32,152.56z"/>
		</g>
	</g>
	<path class="st1" d="M123.25,187.6v3.99h-17.72v6.64h12.72v3.99h-12.72v7.49h17.72v3.99H97.77v-26.1H123.25z"/>
	<path class="st1" d="M126.29,194.69h13.5c6,0,8.13,2.83,8.13,9.84v9.17h-7.38v-12c0-2.42-0.71-3.24-2.76-3.24h-4.1v15.25h-7.38
		V194.69z"/>
	<path class="st1" d="M165.66,194.69v-7.08H173v26.1h-14.47c-6.08,0-8.13-2.91-8.13-9.51c0-6.67,2.09-9.51,8.13-9.51H165.66z
		 M165.66,209.9v-11.45h-5.15c-2.01,0-2.76,0.82-2.76,3.24v4.96c0,2.46,0.75,3.24,2.76,3.24H165.66z"/>
	<path class="st1" d="M197.94,213.7h-13.46c-6.04,0-8.13-2.83-8.13-9.84v-9.17h7.35v12c0,2.42,0.71,3.21,2.76,3.21h4.14v-15.21h7.34
		V213.7z"/>
	<path class="st1" d="M201.78,194.69h15.4v3.77h-8.02v15.25h-7.38V194.69z"/>
	<path class="st1" d="M219.6,194.69h12.15c6.08,0,8.13,1.79,8.13,7.08v11.93h-14.54c-5.11,0-7.23-1.71-7.23-5.93
		c0-4.17,2.13-5.89,7.23-5.89h7.2v-0.56c0-2.12-0.67-2.87-2.76-2.87H219.6V194.69z M232.53,209.9v-4.25h-4.51
		c-1.79,0-2.53,0.6-2.53,2.05v0.19c0,1.45,0.75,2.01,2.53,2.01H232.53z"/>
	<path class="st1" d="M257.32,209.9v3.8h-7.49c-5.22,0-6.75-1.53-6.75-6.64v-16.48h7.34v4.1h5.3v3.77h-5.3v9.06
		c0,1.68,0.67,2.39,2.24,2.39H257.32z"/>
	<path class="st1" d="M281.22,205.98h-15.25v0.67c0,2.46,0.75,3.24,2.76,3.24h11.26v3.8h-13.24c-6.08,0-8.13-2.91-8.13-9.51
		c0-7.01,2.09-9.84,8.13-9.84h6.34c6.04,0,8.13,2.83,8.13,9.84V205.98z M268.73,198.12c-2.01,0-2.76,0.82-2.76,3.24v0.82h7.9v-0.82
		c0-2.42-0.71-3.24-2.76-3.24H268.73z"/>
	<g>
		<rect x="283.97" y="187.6" class="st1" width="7.25" height="26.1"/>
		<polygon class="st1" points="299.63,200.65 305.64,194.69 300.49,194.69 294.41,200.77 294.41,205.88 294.41,205.87 298.29,213.7 
			306.42,213.7 		"/>
	</g>
</g>
</svg>
