<svg width="138" height="79" viewBox="0 0 138 79" fill="none" xmlns="http://www.w3.org/2000/svg">
<path d="M20.3838 69.5692C20.3445 69.1645 20.3053 68.9471 20.3053 68.7312C20.3022 64.0698 20.3128 59.4099 20.2962 54.7486C20.2932 54.0404 20.423 53.4726 21.0134 52.9864C21.625 52.4836 22.2305 51.9188 22.6609 51.265C23.4325 50.0917 24.4955 49.8924 25.7775 49.9136C28.8096 49.9649 31.8432 49.903 34.8752 49.9574C35.3418 49.9664 35.89 50.2503 36.2478 50.5749C37.0481 51.3012 37.7156 52.1725 38.5083 52.9079C39.0489 53.4092 39.2633 53.9377 39.2588 54.667C39.2316 58.3061 39.215 61.9452 39.2633 65.5843C39.2754 66.5296 38.9553 66.8241 38.0538 66.7561C37.2293 66.6927 36.3943 66.7184 35.5653 66.7546C34.9296 66.7818 34.7242 66.5085 34.7424 65.9014C34.7741 64.8807 34.7348 63.8584 34.7635 62.8377C34.7801 62.2201 34.6246 61.9045 33.9119 61.9135C31.1667 61.9437 28.4215 61.9301 25.6763 61.9135C25.0829 61.9105 24.793 62.1083 24.8005 62.741C24.8156 63.8554 24.8171 64.9743 24.7537 66.0857C24.7326 66.4511 24.5997 66.9599 24.3385 67.1366C23.1033 67.9686 21.8062 68.707 20.3838 69.5677V69.5692ZM29.8228 53.447C29.8228 53.447 29.8228 53.4439 29.8228 53.4424C28.4849 53.4424 27.144 53.4998 25.8107 53.4213C24.9243 53.3699 24.6858 53.7263 24.7296 54.5206C24.7809 55.4417 24.8262 56.3673 24.7915 57.2884C24.7598 58.1264 25.0889 58.3907 25.9134 58.3801C28.5891 58.3439 31.2648 58.356 33.9406 58.3892C34.5672 58.3967 34.8073 58.1959 34.7937 57.5738C34.7695 56.4594 34.7846 55.345 34.7907 54.2306C34.7937 53.7097 34.6669 53.4092 34.0251 53.4319C32.6253 53.4817 31.2226 53.447 29.8213 53.447H29.8228Z" fill="#F57F20"/>
<path d="M18.256 50.0589C17.1447 51.2578 16.2749 52.2665 15.3176 53.1831C15.0699 53.4186 14.546 53.4307 14.1488 53.4337C11.2738 53.4519 8.39874 53.47 5.52521 53.4202C4.74756 53.4066 4.51502 53.6648 4.52559 54.4001C4.57089 57.476 4.18735 56.9128 7.03521 56.9505C9.62184 56.9853 12.21 56.9551 14.7966 56.9581C15.076 56.9581 15.3553 56.9883 15.8521 57.0155C14.9416 58.0377 14.182 58.9588 13.3364 59.7924C13.1145 60.0113 12.6222 60.0158 12.2538 60.0189C10.0175 60.0385 7.78115 60.0566 5.54635 60.0128C4.72944 59.9962 4.50445 60.3012 4.51351 61.0804C4.54069 63.3575 4.51351 63.359 6.78606 63.359C9.948 63.359 13.1099 63.356 16.2719 63.3635C16.6403 63.3635 17.0088 63.4148 17.7003 63.4677C16.5965 64.6425 15.7071 65.624 14.7694 66.5572C14.6033 66.7233 14.2364 66.7384 13.9616 66.7384C9.68224 66.7474 5.40139 66.7187 1.12205 66.758C0.208503 66.767 -0.00591709 66.4318 0.000122906 65.5862C0.0333429 60.7633 0.042403 55.9403 0.00616304 51.1174C-0.00138696 50.1918 0.291553 49.9154 1.20661 49.9215C6.50822 49.9532 11.8098 49.9305 17.113 49.9321C17.3863 49.9321 17.6611 49.9909 18.256 50.0589Z" fill="#F57F20"/>
<path d="M50.0657 56.9635C53.2548 56.9635 56.4455 56.9499 59.6346 56.9952C59.852 56.9982 60.2431 57.4391 60.2507 57.6868C60.302 59.313 60.2899 60.9423 60.2507 62.5701C60.2431 62.8932 60.0967 63.2723 59.8883 63.5184C59.088 64.4697 58.2635 65.4059 57.3862 66.2862C57.1295 66.5444 56.6705 66.7226 56.3035 66.7271C53.0465 66.7604 49.7894 66.7679 46.5338 66.7166C46.0914 66.709 45.5795 66.4221 45.2322 66.1156C44.6131 65.5705 44.1556 64.8381 43.5229 64.3157C42.5218 63.4882 42.182 62.487 42.2167 61.2186C42.2787 59.0488 42.2333 56.8774 42.2318 54.706C42.2318 54.6426 42.2032 54.558 42.2334 54.5173C42.9113 53.5826 43.5274 52.5905 44.2975 51.7389C45.0238 50.9356 45.5116 49.868 46.9853 49.9042C51.2299 50.0054 55.4776 49.9344 59.7237 49.9344C59.9366 49.9344 60.151 49.9631 60.6025 49.9948C59.5168 51.1772 58.5851 52.2432 57.5855 53.2413C57.3862 53.4406 56.9302 53.4331 56.5935 53.4346C53.6565 53.4512 50.718 53.4739 47.7811 53.4331C46.9974 53.4225 46.6894 53.64 46.6999 54.4463C46.7332 57.0964 46.7271 59.7464 46.7135 62.3964C46.709 63.0744 46.943 63.3779 47.6618 63.3689C50.0884 63.3402 52.5149 63.3417 54.9415 63.3613C55.624 63.3674 55.9366 63.1228 55.9306 62.4161C55.9109 59.7857 56.148 59.9925 53.6837 60.0529C52.8622 60.0741 52.2084 59.8521 51.6829 59.1786C51.1424 58.4855 50.5202 57.8559 49.9344 57.199C49.9797 57.1205 50.025 57.042 50.0687 56.962L50.0657 56.9635Z" fill="#F57F20"/>
<path d="M99.5972 56.9571C98.7123 57.9673 98.0464 58.825 97.2687 59.5679C96.9683 59.8548 96.4216 59.9983 95.9837 60.0073C93.7489 60.0496 91.5141 60.0572 89.2793 60.0104C88.4534 59.9922 88.1453 60.249 88.1378 61.093C88.1197 63.3626 88.0895 63.3611 90.3484 63.3611C93.5738 63.3611 96.7976 63.3611 100.023 63.3656C100.361 63.3656 100.698 63.4003 101.322 63.4366C100.265 64.6144 99.4009 65.6155 98.4843 66.5653C98.3257 66.7299 97.9467 66.7269 97.6704 66.7269C93.3594 66.7374 89.0498 66.7208 84.7388 66.754C83.9309 66.7601 83.6999 66.4656 83.7044 65.694C83.7286 60.7774 83.7195 55.8594 83.7135 50.9428C83.7135 50.3947 83.7105 49.9462 84.4896 49.9492C90.1083 49.9674 95.7285 49.9538 101.347 49.9538C101.47 49.9538 101.59 49.9915 101.977 50.0564C100.85 51.2403 99.8599 52.323 98.8089 53.3437C98.6323 53.5159 98.2004 53.4509 97.8863 53.4509C95.0128 53.4555 92.1393 53.4721 89.2657 53.4358C88.4398 53.4253 88.1166 53.7167 88.1423 54.5472C88.2269 57.3769 87.875 56.9375 90.5402 56.9556C93.4741 56.9753 96.408 56.9602 99.5941 56.9602L99.5972 56.9571Z" fill="#F57F20"/>
<path d="M68.516 47.1589C68.516 47.7977 68.516 48.1404 68.516 48.4832C68.519 53.0494 68.5372 57.6157 68.5085 62.1804C68.5024 63.0698 68.7259 63.402 69.6984 63.3854C73.3375 63.322 76.9781 63.3567 80.6172 63.3627C80.8905 63.3627 81.1623 63.4171 81.7497 63.4805C80.661 64.6614 79.7686 65.6761 78.8127 66.6259C78.6376 66.801 78.2027 66.7436 77.8871 66.7451C73.7044 66.7512 69.5217 66.724 65.339 66.7633C64.3998 66.7723 64.1521 66.4386 64.1597 65.5387C64.1929 60.6538 64.1823 55.769 64.1567 50.8841C64.1536 50.1804 64.3182 49.7033 64.9796 49.3379C66.1076 48.7142 67.1812 47.9909 68.5175 47.1604L68.516 47.1589Z" fill="#F57F20"/>
<path d="M0.199137 78.4729V77.2045H0.720993C0.833337 77.2045 0.929373 77.2226 1.0091 77.2589C1.09004 77.2951 1.15225 77.347 1.19574 77.4147C1.23922 77.4823 1.26097 77.5627 1.26097 77.6557C1.26097 77.7487 1.23922 77.829 1.19574 77.8967C1.15225 77.9643 1.09004 78.0163 1.0091 78.0525C0.929373 78.0888 0.833337 78.1069 0.720993 78.1069H0.329601L0.434697 77.9963V78.4729H0.199137ZM0.434697 78.0217L0.329601 77.9076H0.710121C0.814009 77.9076 0.891925 77.8858 0.943869 77.8423C0.997021 77.7976 1.0236 77.7354 1.0236 77.6557C1.0236 77.5748 0.997021 77.5125 0.943869 77.4691C0.891925 77.4256 0.814009 77.4038 0.710121 77.4038H0.329601L0.434697 77.2879V78.0217ZM1.49215 78.4729V77.5053H1.71865V78.4729H1.49215ZM1.60631 77.3458C1.56403 77.3458 1.529 77.3325 1.50121 77.306C1.47464 77.2794 1.46135 77.2474 1.46135 77.2099C1.46135 77.1713 1.47464 77.1393 1.50121 77.1139C1.529 77.0873 1.56403 77.074 1.60631 77.074C1.64859 77.074 1.68302 77.0867 1.70959 77.1121C1.73738 77.1362 1.75127 77.1671 1.75127 77.2045C1.75127 77.2444 1.73798 77.2782 1.71141 77.306C1.68483 77.3325 1.6498 77.3458 1.60631 77.3458ZM2.55229 78.4856C2.47377 78.4856 2.40189 78.4675 2.33666 78.4312C2.27264 78.395 2.2213 78.3406 2.18264 78.2681C2.14519 78.1945 2.12647 78.1014 2.12647 77.9891C2.12647 77.8755 2.14459 77.7825 2.18083 77.71C2.21828 77.6376 2.26901 77.5838 2.33304 77.5488C2.39706 77.5125 2.47014 77.4944 2.55229 77.4944C2.64772 77.4944 2.73168 77.515 2.80416 77.556C2.87784 77.5971 2.93583 77.6545 2.97811 77.7282C3.0216 77.8019 3.04334 77.8888 3.04334 77.9891C3.04334 78.0894 3.0216 78.1769 2.97811 78.2518C2.93583 78.3255 2.87784 78.3829 2.80416 78.424C2.73168 78.465 2.64772 78.4856 2.55229 78.4856ZM2.01594 78.8244V77.5053H2.23156V77.7336L2.22432 77.9909L2.24244 78.2482V78.8244H2.01594ZM2.52692 78.2917C2.58128 78.2917 2.6296 78.2796 2.67188 78.2555C2.71537 78.2313 2.7498 78.1963 2.77516 78.1504C2.80053 78.1045 2.81322 78.0507 2.81322 77.9891C2.81322 77.9263 2.80053 77.8725 2.77516 77.8278C2.7498 77.7819 2.71537 77.7469 2.67188 77.7227C2.6296 77.6986 2.58128 77.6865 2.52692 77.6865C2.47256 77.6865 2.42364 77.6986 2.38015 77.7227C2.33666 77.7469 2.30223 77.7819 2.27686 77.8278C2.2515 77.8725 2.23881 77.9263 2.23881 77.9891C2.23881 78.0507 2.2515 78.1045 2.27686 78.1504C2.30223 78.1963 2.33666 78.2313 2.38015 78.2555C2.42364 78.2796 2.47256 78.2917 2.52692 78.2917ZM3.71296 78.4856C3.60545 78.4856 3.51122 78.4644 3.43029 78.4222C3.35056 78.3787 3.28835 78.3195 3.24365 78.2446C3.20016 78.1697 3.17842 78.0845 3.17842 77.9891C3.17842 77.8925 3.19956 77.8073 3.24184 77.7336C3.28533 77.6587 3.34452 77.6001 3.41941 77.5578C3.49552 77.5156 3.58189 77.4944 3.67853 77.4944C3.77275 77.4944 3.85671 77.515 3.9304 77.556C4.00409 77.5971 4.06207 77.6551 4.10435 77.73C4.14663 77.8049 4.16777 77.8931 4.16777 77.9945C4.16777 78.0042 4.16717 78.0151 4.16596 78.0271C4.16596 78.0392 4.16535 78.0507 4.16415 78.0616H3.35781V77.9112H4.04455L3.95577 77.9583C3.95697 77.9027 3.9455 77.8538 3.92134 77.8115C3.89718 77.7692 3.86396 77.736 3.82168 77.7119C3.78061 77.6877 3.73289 77.6756 3.67853 77.6756C3.62296 77.6756 3.57404 77.6877 3.53176 77.7119C3.49069 77.736 3.45807 77.7698 3.43391 77.8133C3.41096 77.8556 3.39948 77.9057 3.39948 77.9637V78C3.39948 78.058 3.41277 78.1093 3.43935 78.154C3.46592 78.1987 3.50337 78.2331 3.55169 78.2573C3.60001 78.2814 3.65558 78.2935 3.71839 78.2935C3.77275 78.2935 3.82168 78.2851 3.86517 78.2681C3.90865 78.2512 3.94731 78.2247 3.98113 78.1884L4.10254 78.3279C4.05905 78.3787 4.00409 78.4179 3.93765 78.4457C3.87241 78.4723 3.79752 78.4856 3.71296 78.4856ZM5.12349 77.788H5.75588V77.9873H5.12349V77.788ZM5.14342 78.4729H4.90786V77.2045H5.83379V77.402H5.14342V78.4729ZM6.03985 78.4729V77.5053H6.26635V78.4729H6.03985ZM6.15401 77.3458C6.11173 77.3458 6.07669 77.3325 6.04891 77.306C6.02233 77.2794 6.00905 77.2474 6.00905 77.2099C6.00905 77.1713 6.02233 77.1393 6.04891 77.1139C6.07669 77.0873 6.11173 77.074 6.15401 77.074C6.19629 77.074 6.23071 77.0867 6.25729 77.1121C6.28507 77.1362 6.29897 77.1671 6.29897 77.2045C6.29897 77.2444 6.28568 77.2782 6.2591 77.306C6.23253 77.3325 6.19749 77.3458 6.15401 77.3458ZM6.92784 78.4856C6.82154 78.4856 6.7394 78.4584 6.68141 78.404C6.62343 78.3485 6.59444 78.2669 6.59444 78.1594V77.2915H6.82094V78.154C6.82094 78.1999 6.83241 78.2355 6.85536 78.2609C6.87952 78.2863 6.91274 78.2989 6.95502 78.2989C7.00576 78.2989 7.04804 78.2857 7.08186 78.2591L7.14528 78.4204C7.11871 78.4421 7.08609 78.4584 7.04744 78.4693C7.00878 78.4801 6.96892 78.4856 6.92784 78.4856ZM6.43498 77.6937V77.5125H7.08005V77.6937H6.43498ZM7.67282 78.4856C7.56651 78.4856 7.48437 78.4584 7.42638 78.404C7.3684 78.3485 7.33941 78.2669 7.33941 78.1594V77.2915H7.56591V78.154C7.56591 78.1999 7.57738 78.2355 7.60034 78.2609C7.6245 78.2863 7.65772 78.2989 7.7 78.2989C7.75073 78.2989 7.79301 78.2857 7.82684 78.2591L7.89026 78.4204C7.86368 78.4421 7.83106 78.4584 7.79241 78.4693C7.75375 78.4801 7.71389 78.4856 7.67282 78.4856ZM7.17995 77.6937V77.5125H7.82502V77.6937H7.17995ZM8.07658 78.4729V77.5053H8.30308V78.4729H8.07658ZM8.19074 77.3458C8.14846 77.3458 8.11342 77.3325 8.08564 77.306C8.05906 77.2794 8.04578 77.2474 8.04578 77.2099C8.04578 77.1713 8.05906 77.1393 8.08564 77.1139C8.11342 77.0873 8.14846 77.074 8.19074 77.074C8.23302 77.074 8.26744 77.0867 8.29402 77.1121C8.3218 77.1362 8.3357 77.1671 8.3357 77.2045C8.3357 77.2444 8.32241 77.2782 8.29583 77.306C8.26926 77.3325 8.23422 77.3458 8.19074 77.3458ZM9.1494 77.4944C9.22671 77.4944 9.29557 77.5095 9.35597 77.5397C9.41757 77.5699 9.46589 77.6164 9.50093 77.6792C9.53596 77.7409 9.55347 77.8206 9.55347 77.9184V78.4729H9.32697V77.9474C9.32697 77.8617 9.30644 77.7976 9.26537 77.7553C9.2255 77.7131 9.16933 77.6919 9.09685 77.6919C9.0437 77.6919 8.99659 77.7028 8.95551 77.7245C8.91444 77.7463 8.88243 77.7789 8.85948 77.8224C8.83773 77.8647 8.82686 77.9184 8.82686 77.9837V78.4729H8.60036V77.5053H8.81599V77.7662L8.77794 77.6865C8.81176 77.6249 8.86069 77.5778 8.92471 77.5452C8.98994 77.5113 9.06484 77.4944 9.1494 77.4944ZM10.2811 78.8371C10.1917 78.8371 10.1041 78.825 10.0183 78.8009C9.93378 78.7779 9.86432 78.7441 9.80996 78.6994L9.91143 78.5291C9.95371 78.5641 10.0069 78.5919 10.0709 78.6124C10.1361 78.6342 10.202 78.645 10.2684 78.645C10.3747 78.645 10.4526 78.6203 10.5021 78.5707C10.5517 78.5224 10.5764 78.4493 10.5764 78.3515V78.1794L10.5946 77.9601L10.5873 77.7409V77.5053H10.8029V78.3261C10.8029 78.5013 10.7582 78.6299 10.6688 78.7121C10.5795 78.7954 10.4502 78.8371 10.2811 78.8371ZM10.2521 78.4294C10.1603 78.4294 10.0769 78.4101 10.002 78.3714C9.92834 78.3316 9.86975 78.2766 9.82626 78.2065C9.78398 78.1365 9.76284 78.0543 9.76284 77.9601C9.76284 77.8671 9.78398 77.7855 9.82626 77.7155C9.86975 77.6454 9.92834 77.5911 10.002 77.5524C10.0769 77.5137 10.1603 77.4944 10.2521 77.4944C10.3342 77.4944 10.4079 77.5107 10.4731 77.5433C10.5384 77.576 10.5903 77.6267 10.629 77.6956C10.6688 77.7644 10.6888 77.8526 10.6888 77.9601C10.6888 78.0676 10.6688 78.1564 10.629 78.2265C10.5903 78.2953 10.5384 78.3467 10.4731 78.3805C10.4079 78.4131 10.3342 78.4294 10.2521 78.4294ZM10.2865 78.2373C10.3433 78.2373 10.394 78.2259 10.4387 78.2029C10.4834 78.1788 10.5178 78.1461 10.542 78.1051C10.5674 78.0628 10.5801 78.0145 10.5801 77.9601C10.5801 77.9057 10.5674 77.858 10.542 77.817C10.5178 77.7747 10.4834 77.7427 10.4387 77.7209C10.394 77.698 10.3433 77.6865 10.2865 77.6865C10.2297 77.6865 10.1784 77.698 10.1325 77.7209C10.0878 77.7427 10.0528 77.7747 10.0274 77.817C10.0032 77.858 9.99116 77.9057 9.99116 77.9601C9.99116 78.0145 10.0032 78.0628 10.0274 78.1051C10.0528 78.1461 10.0878 78.1788 10.1325 78.2029C10.1784 78.2259 10.2297 78.2373 10.2865 78.2373ZM11.9893 78.491C11.9011 78.491 11.8219 78.4765 11.7519 78.4475C11.6818 78.4185 11.6269 78.3787 11.587 78.3279C11.5471 78.2772 11.5272 78.2186 11.5272 78.1522C11.5272 78.0918 11.5405 78.0374 11.5671 77.9891C11.5936 77.9408 11.6359 77.8949 11.6939 77.8514C11.7519 77.8067 11.8262 77.762 11.9168 77.7173C11.988 77.6823 12.0436 77.6515 12.0835 77.6249C12.1246 77.5983 12.1529 77.5729 12.1686 77.5488C12.1856 77.5246 12.194 77.4993 12.194 77.4727C12.194 77.4364 12.1813 77.4074 12.156 77.3857C12.1306 77.3627 12.0944 77.3513 12.0472 77.3513C11.9965 77.3513 11.9566 77.364 11.9276 77.3893C11.8999 77.4135 11.886 77.4455 11.886 77.4854C11.886 77.5059 11.8896 77.5258 11.8968 77.5452C11.9053 77.5645 11.9198 77.5862 11.9403 77.6104C11.9609 77.6345 11.9905 77.6654 12.0291 77.7028L12.6996 78.3461L12.5745 78.4928L11.8497 77.797C11.8087 77.7572 11.7754 77.7203 11.7501 77.6865C11.7247 77.6527 11.7066 77.6201 11.6957 77.5886C11.6848 77.556 11.6794 77.5228 11.6794 77.489C11.6794 77.4298 11.6945 77.3778 11.7247 77.3332C11.7549 77.2872 11.7978 77.2522 11.8534 77.2281C11.9089 77.2027 11.9736 77.19 12.0472 77.19C12.1161 77.19 12.1753 77.2015 12.2248 77.2244C12.2756 77.2462 12.3148 77.2782 12.3426 77.3205C12.3716 77.3615 12.3861 77.4111 12.3861 77.4691C12.3861 77.5198 12.3734 77.5669 12.348 77.6104C12.3227 77.6527 12.2828 77.6931 12.2284 77.7318C12.1753 77.7704 12.104 77.8109 12.0146 77.8532C11.9482 77.8858 11.8956 77.9166 11.857 77.9456C11.8183 77.9746 11.7905 78.0036 11.7736 78.0326C11.7567 78.0616 11.7483 78.0936 11.7483 78.1286C11.7483 78.1637 11.7585 78.1945 11.7791 78.221C11.8008 78.2476 11.831 78.2687 11.8697 78.2845C11.9083 78.2989 11.9536 78.3062 12.0056 78.3062C12.0829 78.3062 12.1529 78.2893 12.2158 78.2555C12.2798 78.2204 12.3335 78.1685 12.377 78.0996C12.4205 78.0308 12.4519 77.9456 12.4712 77.8441L12.6543 77.9039C12.6289 78.0259 12.5848 78.131 12.522 78.2192C12.4604 78.3062 12.3843 78.3732 12.2937 78.4204C12.2031 78.4675 12.1016 78.491 11.9893 78.491ZM13.7785 78.4729L13.224 77.2045H13.4795L13.9742 78.3515H13.8274L14.3275 77.2045H14.5631L14.0104 78.4729H13.7785ZM15.1988 78.4729V78.2772L15.1861 78.2355V77.8931C15.1861 77.8266 15.1661 77.7753 15.1263 77.739C15.0864 77.7016 15.026 77.6829 14.9451 77.6829C14.8907 77.6829 14.837 77.6913 14.7838 77.7082C14.7319 77.7251 14.6878 77.7487 14.6515 77.7789L14.5627 77.614C14.6147 77.5741 14.6763 77.5446 14.7476 77.5252C14.8201 77.5047 14.8949 77.4944 14.9723 77.4944C15.1124 77.4944 15.2205 77.5282 15.2966 77.5959C15.3739 77.6623 15.4126 77.7656 15.4126 77.9057V78.4729H15.1988ZM14.8943 78.4856C14.8219 78.4856 14.7584 78.4735 14.7041 78.4493C14.6497 78.424 14.6074 78.3895 14.5772 78.3461C14.5483 78.3014 14.5338 78.2512 14.5338 78.1957C14.5338 78.1413 14.5464 78.0924 14.5718 78.0489C14.5984 78.0054 14.6413 77.971 14.7005 77.9456C14.7597 77.9202 14.8382 77.9076 14.936 77.9076H15.2169V78.058H14.9523C14.875 78.058 14.8231 78.0706 14.7965 78.096C14.7699 78.1202 14.7566 78.1504 14.7566 78.1866C14.7566 78.2277 14.7729 78.2603 14.8056 78.2845C14.8382 78.3086 14.8835 78.3207 14.9415 78.3207C14.997 78.3207 15.0466 78.308 15.09 78.2826C15.1347 78.2573 15.1667 78.2198 15.1861 78.1703L15.2241 78.3062C15.2024 78.363 15.1631 78.4071 15.1063 78.4385C15.0508 78.4699 14.9801 78.4856 14.8943 78.4856ZM15.7033 78.4729V77.1284H15.9298V78.4729H15.7033ZM16.4843 78.4729L16.0694 77.5053H16.305L16.6619 78.3587H16.546L16.9156 77.5053H17.133L16.7181 78.4729H16.4843ZM17.7029 78.4856C17.5954 78.4856 17.5011 78.4644 17.4202 78.4222C17.3405 78.3787 17.2783 78.3195 17.2336 78.2446C17.1901 78.1697 17.1683 78.0845 17.1683 77.9891C17.1683 77.8925 17.1895 77.8073 17.2318 77.7336C17.2752 77.6587 17.3344 77.6001 17.4093 77.5578C17.4854 77.5156 17.5718 77.4944 17.6684 77.4944C17.7627 77.4944 17.8466 77.515 17.9203 77.556C17.994 77.5971 18.052 77.6551 18.0943 77.73C18.1365 77.8049 18.1577 77.8931 18.1577 77.9945C18.1577 78.0042 18.1571 78.0151 18.1559 78.0271C18.1559 78.0392 18.1553 78.0507 18.1541 78.0616H17.3477V77.9112H18.0345L17.9457 77.9583C17.9469 77.9027 17.9354 77.8538 17.9113 77.8115C17.8871 77.7692 17.8539 77.736 17.8116 77.7119C17.7705 77.6877 17.7228 77.6756 17.6684 77.6756C17.6129 77.6756 17.564 77.6877 17.5217 77.7119C17.4806 77.736 17.448 77.7698 17.4238 77.8133C17.4009 77.8556 17.3894 77.9057 17.3894 77.9637V78C17.3894 78.058 17.4027 78.1093 17.4293 78.154C17.4558 78.1987 17.4933 78.2331 17.5416 78.2573C17.5899 78.2814 17.6455 78.2935 17.7083 78.2935C17.7627 78.2935 17.8116 78.2851 17.8551 78.2681C17.8986 78.2512 17.9372 78.2247 17.971 78.1884L18.0925 78.3279C18.049 78.3787 17.994 78.4179 17.9276 78.4457C17.8623 78.4723 17.7874 78.4856 17.7029 78.4856ZM18.6742 78.4856C18.5933 78.4856 18.5154 78.4753 18.4405 78.4548C18.3668 78.433 18.3082 78.4071 18.2647 78.3769L18.3517 78.2047C18.3952 78.2325 18.4471 78.2555 18.5075 78.2736C18.5679 78.2917 18.6283 78.3008 18.6887 78.3008C18.76 78.3008 18.8113 78.2911 18.8427 78.2718C18.8754 78.2524 18.8917 78.2265 18.8917 78.1939C18.8917 78.1673 18.8808 78.1473 18.8591 78.1341C18.8373 78.1196 18.8089 78.1087 18.7739 78.1014C18.7389 78.0942 18.6996 78.0875 18.6561 78.0815C18.6138 78.0755 18.5709 78.0676 18.5275 78.058C18.4852 78.0471 18.4465 78.032 18.4115 78.0127C18.3765 77.9921 18.3481 77.9649 18.3263 77.9311C18.3046 77.8973 18.2937 77.8526 18.2937 77.797C18.2937 77.7354 18.3112 77.6823 18.3463 77.6376C18.3813 77.5917 18.4302 77.5566 18.493 77.5325C18.5571 77.5071 18.6326 77.4944 18.7195 77.4944C18.7848 77.4944 18.8506 77.5017 18.917 77.5162C18.9835 77.5307 19.0384 77.5512 19.0819 77.5778L18.995 77.7499C18.9491 77.7221 18.9025 77.7034 18.8554 77.6937C18.8095 77.6829 18.7636 77.6774 18.7177 77.6774C18.6489 77.6774 18.5975 77.6877 18.5637 77.7082C18.5311 77.7288 18.5148 77.7547 18.5148 77.7862C18.5148 77.8151 18.5256 77.8369 18.5474 77.8514C18.5691 77.8659 18.5975 77.8774 18.6326 77.8858C18.6676 77.8943 18.7062 77.9015 18.7485 77.9076C18.792 77.9124 18.8349 77.9202 18.8772 77.9311C18.9195 77.942 18.9581 77.9571 18.9931 77.9764C19.0294 77.9945 19.0584 78.0205 19.0801 78.0543C19.1019 78.0882 19.1127 78.1322 19.1127 78.1866C19.1127 78.247 19.0946 78.2996 19.0584 78.3442C19.0233 78.3889 18.9732 78.424 18.908 78.4493C18.8427 78.4735 18.7648 78.4856 18.6742 78.4856Z" fill="black"/>
<path fill-rule="evenodd" clip-rule="evenodd" d="M82.0281 26.4173C82.022 18.7254 82.5535 17.7997 79.3916 24.4452C79.4203 23.2569 78.4222 21.5838 79.4656 19.799C81.0632 18.6801 82.4886 19.127 83.7344 21.1383C84.6207 23.8337 84.0545 25.5898 82.0281 26.4188V26.4173ZM136.991 29.1715C136.139 26.1138 134.558 23.3369 131.918 20.9677L123.171 16.7261L117.223 14.6499L115.743 10.8371C114.463 9.29993 113.19 8.20972 111.94 7.65857C111.621 8.38337 101.291 0.686895 105.848 4.53891L89.8755 1.1414L76.3474 0.0859137C71.9926 -0.178336 67.7601 0.135744 63.7676 1.46605C66.4902 1.99606 69.8665 3.20104 69.9677 4.19915C66.9462 4.02399 64.1482 4.33657 61.628 5.23955L51.5623 9.13686L41.5299 14.3645L30.5612 23.3007L18.1868 38.5033C25.1932 31.7778 25.9618 26.7208 35.6529 25.1625C37.8002 22.745 40.1074 20.7352 42.5038 18.9473L49.3713 14.0972L54.6442 11.7794C63.0398 7.69481 71.7178 6.819 80.6192 8.45886L76.1481 4.54343L84.5165 4.58873L95.5335 5.79824C112.578 9.97792 116.337 16.4649 96.6177 15.2357C92.1315 15.6117 88.0907 15.9741 82.9945 14.7646L73.7533 14.3086L68.1542 15.4487C65.6989 16.1161 63.1093 16.4226 60.654 17.087L66.2924 19.8669L62.7937 22.8643L59.822 26.4822C61.6657 25.537 63.4354 24.6566 65.2746 23.7144L70.3935 21.1534L72.2871 25.623C72.3625 23.5876 72.7989 21.7484 73.7502 20.1976L77.0375 19.0591C76.7914 20.5766 76.2161 22.0277 75.0443 23.358L76.2085 26.375L69.6264 28.6415L63.3222 31.1164L72.0741 30.2255L82.2047 28.4905L87.9805 26.8008C90.629 25.6804 92.3142 23.3852 93.0284 19.9137C90.9537 21.8616 88.8019 23.6102 86.1081 23.9666C87.4248 22.7133 87.6226 21.0175 87.3161 19.1134L100.104 18.2693L109.851 18.8703L118.895 20.2988L126.774 22.7238C128.607 23.5136 130.436 24.8258 132.248 26.9005C134.129 29.4146 134.636 32.344 134.703 35.4697C132.513 33.8148 130.677 32.5721 128.53 31.9046L121.871 30.6468L116.214 30.6498L110.387 31.5407L105.151 33.2938L99.0171 35.3958L91.8627 38.1666L85.2338 41.2817L89.4769 39.6358L85.2278 41.2848L85.2338 41.2817L84.6691 41.5022L86.481 40.0466L88.8155 37.4343C87.7193 37.7619 85.9752 38.5245 85.2096 38.754L81.0873 42.8899C80.1164 44.3606 80.3187 45.4871 80.8986 46.5411L86.629 44.5781L93.4165 40.8514L103.257 37.0386L111.272 34.4807C116.892 33.0719 120.731 32.6174 122.777 33.993C118.393 34.7027 114.649 35.3112 109.617 36.1251C103.357 38.298 97.2443 40.8544 91.3508 43.9786C94.5067 43.3716 97.5267 42.9307 99.6437 43.6404C104.411 44.3516 106.082 47.5407 106.014 52.1266C106.155 55.1239 107.188 68.2337 109.666 69.176C111.506 69.8736 110.422 69.5912 110.066 65.3511L109.743 52.4633C109.794 47.0499 112.436 42.0307 116.76 38.0398C118.96 37.2999 121.158 36.56 123.361 35.8216L126.375 34.7933L128.649 34.8688C131.778 35.2085 134.111 38.1409 135.654 43.6585L137.557 36.6219C137.916 34.4626 137.842 32.0466 136.985 29.173L136.991 29.1715Z" fill="black"/>
<path fill-rule="evenodd" clip-rule="evenodd" d="M126.316 0.302275C126.316 0.340025 126.313 0.374754 126.31 0.403444C126.305 0.432134 126.299 0.454785 126.289 0.472905C126.281 0.491025 126.268 0.503105 126.254 0.510655C126.24 0.518205 126.227 0.522733 126.209 0.522733H125.085V3.9912C125.085 4.00932 125.081 4.02291 125.072 4.03499C125.063 4.04707 125.049 4.05764 125.029 4.06519C125.008 4.07274 124.981 4.07879 124.946 4.08332C124.915 4.08785 124.869 4.09086 124.819 4.09086C124.77 4.09086 124.727 4.08785 124.693 4.08332C124.656 4.07879 124.631 4.07274 124.61 4.06519C124.588 4.05764 124.576 4.04707 124.567 4.03499C124.558 4.02291 124.554 4.00932 124.554 3.9912V0.522733H123.43C123.412 0.522733 123.397 0.518205 123.385 0.510655C123.371 0.503105 123.361 0.489515 123.353 0.472905C123.343 0.454785 123.338 0.432134 123.332 0.403444C123.326 0.374754 123.325 0.340025 123.325 0.302275C123.325 0.263015 123.328 0.228284 123.332 0.198084C123.338 0.167884 123.343 0.143723 123.353 0.124093C123.361 0.105973 123.373 0.0923842 123.385 0.0848342C123.397 0.0772842 123.412 0.0727539 123.43 0.0727539H126.21C126.228 0.0727539 126.24 0.0772842 126.256 0.0848342C126.269 0.0923842 126.281 0.107483 126.29 0.124093C126.299 0.143723 126.307 0.167884 126.311 0.198084C126.316 0.228284 126.317 0.261505 126.317 0.302275H126.316Z" fill="black"/>
<path fill-rule="evenodd" clip-rule="evenodd" d="M131.24 3.99276C131.24 4.00937 131.237 4.02447 131.228 4.03655C131.219 4.04863 131.205 4.0592 131.184 4.06524C131.163 4.07279 131.134 4.07883 131.101 4.08487C131.069 4.0894 131.027 4.09242 130.974 4.09242C130.921 4.09242 130.882 4.0894 130.847 4.08487C130.811 4.07883 130.784 4.0743 130.763 4.06524C130.745 4.05769 130.73 4.04863 130.72 4.03655C130.713 4.02447 130.707 4.00937 130.707 3.99276V0.507679H130.701L129.292 4.00635C129.284 4.02145 129.277 4.03353 129.266 4.0441C129.254 4.05316 129.238 4.06373 129.215 4.06977C129.194 4.07732 129.168 4.08185 129.138 4.08487C129.109 4.0894 129.073 4.0894 129.032 4.0894C128.992 4.0894 128.952 4.08638 128.921 4.08336C128.89 4.07883 128.865 4.07279 128.844 4.06675C128.824 4.0592 128.807 4.05014 128.795 4.03957C128.785 4.029 128.777 4.01994 128.773 4.00635L127.426 0.507679H127.421V3.99276C127.421 4.00937 127.418 4.02447 127.411 4.03655C127.4 4.04863 127.388 4.0592 127.365 4.06524C127.344 4.07279 127.315 4.07883 127.282 4.08487C127.249 4.0894 127.205 4.09242 127.152 4.09242C127.099 4.09242 127.057 4.0894 127.024 4.08487C126.991 4.07883 126.962 4.0743 126.944 4.06524C126.924 4.05769 126.909 4.04863 126.902 4.03655C126.897 4.02447 126.891 4.00937 126.891 3.99276V0.312888C126.891 0.226818 126.914 0.164907 126.959 0.128667C127.007 0.0924275 127.059 0.0727982 127.115 0.0727982H127.441C127.507 0.0727982 127.566 0.080349 127.616 0.092429C127.667 0.104509 127.71 0.122629 127.749 0.151319C127.787 0.180009 127.817 0.213228 127.842 0.253998C127.867 0.294768 127.891 0.343089 127.909 0.398959L129.052 3.29514H129.067L130.257 0.408018C130.28 0.346108 130.307 0.293258 130.334 0.249468C130.361 0.205678 130.39 0.170948 130.421 0.145278C130.456 0.119608 130.489 0.0999783 130.532 0.0894083C130.571 0.0788383 130.616 0.0712891 130.669 0.0712891H131.012C131.042 0.0712891 131.074 0.0773285 131.101 0.0848785C131.128 0.0954485 131.154 0.109037 131.173 0.128667C131.195 0.148297 131.21 0.173968 131.22 0.202658C131.234 0.232858 131.24 0.269099 131.24 0.311378V3.99125V3.99276Z" fill="black"/>
</svg>
