<svg width="120" height="69" viewBox="0 0 120 69" fill="none" xmlns="http://www.w3.org/2000/svg">
<path d="M17.6835 60.3541C17.6494 60.003 17.6154 59.8143 17.6154 59.627C17.6128 55.583 17.6219 51.5404 17.6075 47.4964C17.6049 46.882 17.7176 46.3895 18.2298 45.9676C18.7603 45.5314 19.2856 45.0415 19.659 44.4742C20.3284 43.4564 21.2506 43.2835 22.3628 43.3018C24.9933 43.3463 27.6251 43.2926 30.2556 43.3398C30.6604 43.3476 31.1359 43.5939 31.4464 43.8756C32.1407 44.5057 32.7197 45.2616 33.4074 45.8995C33.8764 46.3344 34.0624 46.7929 34.0585 47.4257C34.0349 50.5828 34.0205 53.7399 34.0624 56.897C34.0729 57.717 33.7952 57.9725 33.0131 57.9135C32.2979 57.8585 31.5734 57.8808 30.8542 57.9122C30.3027 57.9358 30.1246 57.6987 30.1403 57.1721C30.1678 56.2865 30.1337 55.3996 30.1586 54.5141C30.173 53.9783 30.0381 53.7045 29.4198 53.7124C27.0382 53.7386 24.6566 53.7268 22.2751 53.7124C21.7602 53.7097 21.5087 53.8814 21.5153 54.4302C21.5284 55.397 21.5297 56.3677 21.4746 57.3319C21.4563 57.6489 21.341 58.0904 21.1144 58.2437C20.0428 58.9655 18.9175 59.6061 17.6835 60.3528V60.3541ZM25.8723 46.3672C25.8723 46.3672 25.8723 46.3646 25.8723 46.3633C24.7117 46.3633 23.5484 46.413 22.3916 46.3449C21.6227 46.3004 21.4157 46.6095 21.4537 47.2986C21.4982 48.0977 21.5375 48.9007 21.5074 49.6998C21.4799 50.4269 21.7655 50.6561 22.4807 50.647C24.802 50.6155 27.1234 50.626 29.4447 50.6548C29.9883 50.6614 30.1966 50.4871 30.1848 49.9474C30.1639 48.9806 30.177 48.0139 30.1822 47.0471C30.1848 46.5951 30.0748 46.3344 29.518 46.3541C28.3037 46.3973 27.0867 46.3672 25.871 46.3672H25.8723Z" fill="white"/>
<path d="M15.8381 43.4274C14.874 44.4675 14.1194 45.3426 13.2889 46.1378C13.074 46.3422 12.6195 46.3526 12.2749 46.3553C9.78069 46.371 7.28645 46.3867 4.79352 46.3435C4.11887 46.3317 3.91713 46.5557 3.9263 47.1937C3.9656 49.8621 3.63286 49.3735 6.10352 49.4062C8.34755 49.4364 10.5929 49.4102 12.8369 49.4128C13.0793 49.4128 13.3216 49.439 13.7526 49.4626C12.9627 50.3494 12.3037 51.1485 11.5701 51.8717C11.3776 52.0616 10.9505 52.0655 10.6309 52.0682C8.69077 52.0852 6.75066 52.1009 4.81186 52.0629C4.10315 52.0485 3.90796 52.3131 3.91582 52.9891C3.9394 54.9646 3.91582 54.9659 5.88737 54.9659C8.63051 54.9659 11.3736 54.9633 14.1168 54.9698C14.4364 54.9698 14.7561 55.0144 15.356 55.0602C14.3984 56.0794 13.6268 56.9309 12.8133 57.7405C12.6692 57.8846 12.3509 57.8977 12.1125 57.8977C8.39995 57.9055 4.6861 57.8806 0.973559 57.9147C0.181009 57.9225 -0.0050113 57.6317 0.000228697 56.8981C0.0290487 52.714 0.0369088 48.5299 0.00546882 44.3457C-0.00108118 43.5427 0.253059 43.3029 1.04692 43.3082C5.64633 43.3357 10.2457 43.3161 14.8465 43.3174C15.0836 43.3174 15.322 43.3685 15.8381 43.4274Z" fill="white"/>
<path d="M43.4347 49.4182C46.2014 49.4182 48.9694 49.4065 51.7361 49.4458C51.9248 49.4484 52.2641 49.8309 52.2706 50.0457C52.3152 51.4566 52.3047 52.8701 52.2706 54.2823C52.2641 54.5626 52.137 54.8914 51.9562 55.105C51.2619 55.9303 50.5467 56.7425 49.7856 57.5062C49.5629 57.7302 49.1646 57.8848 48.8463 57.8887C46.0206 57.9175 43.195 57.9241 40.3706 57.8795C39.9868 57.873 39.5427 57.6241 39.2414 57.3582C38.7043 56.8852 38.3073 56.2499 37.7585 55.7966C36.8899 55.0788 36.5952 54.2102 36.6253 53.1098C36.679 51.2274 36.6397 49.3436 36.6384 47.4598C36.6384 47.4048 36.6135 47.3314 36.6397 47.296C37.2279 46.4852 37.7624 45.6245 38.4305 44.8856C39.0606 44.1887 39.4837 43.2626 40.7623 43.294C44.4447 43.3818 48.1297 43.3202 51.8134 43.3202C51.9982 43.3202 52.1842 43.3451 52.5759 43.3726C51.634 44.3983 50.8257 45.3232 49.9585 46.1891C49.7856 46.362 49.3899 46.3555 49.0978 46.3568C46.5499 46.3712 44.0006 46.3908 41.4526 46.3555C40.7728 46.3463 40.5055 46.5349 40.5147 47.2345C40.5435 49.5335 40.5383 51.8326 40.5265 54.1316C40.5226 54.7198 40.7256 54.9831 41.3492 54.9753C43.4543 54.9504 45.5595 54.9517 47.6647 54.9687C48.2568 54.974 48.528 54.7617 48.5227 54.1487C48.5057 51.8666 48.7114 52.0461 46.5734 52.0985C45.8608 52.1168 45.2936 51.9243 44.8377 51.34C44.3687 50.7387 43.829 50.1925 43.3207 49.6226C43.36 49.5545 43.3993 49.4864 43.4373 49.4169L43.4347 49.4182Z" fill="white"/>
<path d="M86.4051 49.413C85.6374 50.2894 85.0597 51.0334 84.385 51.678C84.1243 51.9269 83.6501 52.0513 83.2702 52.0592C81.3314 52.0959 79.3926 52.1024 77.4538 52.0618C76.7373 52.0461 76.47 52.2688 76.4635 53.0011C76.4478 54.97 76.4215 54.9687 78.3813 54.9687C81.1795 54.9687 83.9763 54.9687 86.7745 54.9726C87.0679 54.9726 87.3601 55.0027 87.9011 55.0342C86.9841 56.056 86.2348 56.9245 85.4396 57.7485C85.302 57.8913 84.9732 57.8887 84.7335 57.8887C80.9935 57.8979 77.2547 57.8834 73.5147 57.9123C72.8138 57.9175 72.6134 57.662 72.6173 56.9926C72.6383 52.7273 72.6304 48.4606 72.6252 44.1952C72.6252 43.7197 72.6225 43.3306 73.2985 43.3333C78.173 43.349 83.0488 43.3372 87.9233 43.3372C88.0295 43.3372 88.1343 43.3699 88.4696 43.4263C87.4924 44.4533 86.633 45.3926 85.7212 46.2782C85.568 46.4275 85.1933 46.3712 84.9208 46.3712C82.4279 46.3751 79.935 46.3895 77.442 46.3581C76.7255 46.3489 76.4451 46.6017 76.4674 47.3222C76.5408 49.7772 76.2355 49.3959 78.5477 49.4117C81.093 49.4287 83.6383 49.4156 86.4024 49.4156L86.4051 49.413Z" fill="white"/>
<path d="M59.4421 40.9124C59.4421 41.4665 59.4421 41.7639 59.4421 42.0612C59.4447 46.0227 59.4604 49.9841 59.4356 53.9442C59.4303 54.7158 59.6242 55.004 60.4678 54.9896C63.6249 54.9346 66.7833 54.9647 69.9404 54.97C70.1775 54.97 70.4133 55.0171 70.9229 55.0721C69.9784 56.0966 69.2042 56.9769 68.375 57.8009C68.223 57.9528 67.8458 57.9031 67.572 57.9044C63.9433 57.9096 60.3146 57.886 56.6859 57.9201C55.871 57.9279 55.6562 57.6384 55.6627 56.8577C55.6916 52.6198 55.6824 48.382 55.6601 44.1441C55.6575 43.5337 55.8003 43.1197 56.3741 42.8027C57.3527 42.2617 58.2841 41.6342 59.4434 40.9137L59.4421 40.9124Z" fill="white"/>
<path d="M0.178286 68.3435V67.2431H0.631022C0.728486 67.2431 0.811802 67.2588 0.88097 67.2903C0.951186 67.3217 1.00516 67.3668 1.04289 67.4255C1.08061 67.4841 1.09948 67.5538 1.09948 67.6345C1.09948 67.7152 1.08061 67.7849 1.04289 67.8436C1.00516 67.9023 0.951186 67.9474 0.88097 67.9788C0.811802 68.0102 0.728486 68.026 0.631022 68.026H0.29147L0.382646 67.9301V68.3435H0.178286ZM0.382646 67.9521L0.29147 67.853H0.62159C0.711718 67.853 0.779314 67.8342 0.824378 67.7964C0.87049 67.7577 0.893546 67.7037 0.893546 67.6345C0.893546 67.5643 0.87049 67.5103 0.824378 67.4726C0.779314 67.4349 0.711718 67.416 0.62159 67.416H0.29147L0.382646 67.3154V67.9521ZM1.30004 68.3435V67.5041H1.49654V68.3435H1.30004ZM1.39908 67.3657C1.3624 67.3657 1.33201 67.3542 1.3079 67.3311C1.28485 67.3081 1.27332 67.2803 1.27332 67.2478C1.27332 67.2143 1.28485 67.1865 1.3079 67.1645C1.33201 67.1414 1.3624 67.1299 1.39908 67.1299C1.43576 67.1299 1.46563 67.1409 1.48868 67.1629C1.51279 67.1839 1.52484 67.2106 1.52484 67.2431C1.52484 67.2777 1.51331 67.307 1.49025 67.3311C1.4672 67.3542 1.43681 67.3657 1.39908 67.3657ZM2.21976 68.3545C2.15164 68.3545 2.08928 68.3388 2.03269 68.3073C1.97715 68.2759 1.93261 68.2287 1.89907 68.1659C1.86658 68.1019 1.85034 68.0212 1.85034 67.9238C1.85034 67.8253 1.86606 67.7446 1.8975 67.6817C1.92999 67.6188 1.974 67.5722 2.02955 67.5418C2.08509 67.5103 2.1485 67.4946 2.21976 67.4946C2.30255 67.4946 2.37539 67.5124 2.43827 67.5481C2.5022 67.5837 2.5525 67.6335 2.58918 67.6974C2.62691 67.7613 2.64577 67.8368 2.64577 67.9238C2.64577 68.0108 2.62691 68.0867 2.58918 68.1517C2.5525 68.2156 2.5022 68.2654 2.43827 68.3011C2.37539 68.3367 2.30255 68.3545 2.21976 68.3545ZM1.75445 68.6485V67.5041H1.94152V67.7021L1.93523 67.9254L1.95095 68.1486V68.6485H1.75445ZM2.19775 68.1863C2.24491 68.1863 2.28683 68.1758 2.32351 68.1549C2.36124 68.1339 2.39111 68.1035 2.41312 68.0637C2.43512 68.0239 2.44613 67.9772 2.44613 67.9238C2.44613 67.8693 2.43512 67.8226 2.41312 67.7839C2.39111 67.744 2.36124 67.7137 2.32351 67.6927C2.28683 67.6717 2.24491 67.6613 2.19775 67.6613C2.15059 67.6613 2.10815 67.6717 2.07042 67.6927C2.03269 67.7137 2.00282 67.744 1.98082 67.7839C1.95881 67.8226 1.9478 67.8693 1.9478 67.9238C1.9478 67.9772 1.95881 68.0239 1.98082 68.0637C2.00282 68.1035 2.03269 68.1339 2.07042 68.1549C2.10815 68.1758 2.15059 68.1863 2.19775 68.1863ZM3.2267 68.3545C3.13343 68.3545 3.05168 68.3362 2.98147 68.2995C2.9123 68.2618 2.85833 68.2104 2.81955 68.1454C2.78182 68.0805 2.76296 68.0066 2.76296 67.9238C2.76296 67.8399 2.7813 67.7661 2.81798 67.7021C2.85571 67.6372 2.90706 67.5863 2.97204 67.5496C3.03806 67.513 3.11299 67.4946 3.19683 67.4946C3.27858 67.4946 3.35141 67.5124 3.41534 67.5481C3.47927 67.5837 3.52957 67.634 3.56625 67.699C3.60293 67.764 3.62127 67.8405 3.62127 67.9285C3.62127 67.9369 3.62075 67.9463 3.6197 67.9568C3.6197 67.9673 3.61918 67.9772 3.61813 67.9867H2.91859V67.8562H3.51438L3.43735 67.8971C3.4384 67.8488 3.42844 67.8064 3.40748 67.7697C3.38652 67.733 3.3577 67.7042 3.32102 67.6833C3.28539 67.6623 3.24399 67.6518 3.19683 67.6518C3.14862 67.6518 3.10618 67.6623 3.0695 67.6833C3.03387 67.7042 3.00557 67.7336 2.98461 67.7713C2.9647 67.808 2.95474 67.8515 2.95474 67.9018V67.9332C2.95474 67.9835 2.96627 68.0281 2.98933 68.0668C3.01238 68.1056 3.04487 68.1355 3.08679 68.1564C3.12871 68.1774 3.17692 68.1879 3.23142 68.1879C3.27858 68.1879 3.32102 68.1805 3.35875 68.1659C3.39648 68.1512 3.43001 68.1281 3.45936 68.0967L3.56468 68.2177C3.52695 68.2618 3.47927 68.2958 3.42163 68.3199C3.36504 68.343 3.30006 68.3545 3.2267 68.3545ZM4.4504 67.7493H4.99903V67.9222H4.4504V67.7493ZM4.4677 68.3435H4.26334V67.2431H5.06663V67.4145H4.4677V68.3435ZM5.24539 68.3435V67.5041H5.44189V68.3435H5.24539ZM5.34443 67.3657C5.30775 67.3657 5.27736 67.3542 5.25325 67.3311C5.2302 67.3081 5.21867 67.2803 5.21867 67.2478C5.21867 67.2143 5.2302 67.1865 5.25325 67.1645C5.27736 67.1414 5.30775 67.1299 5.34443 67.1299C5.38111 67.1299 5.41098 67.1409 5.43403 67.1629C5.45814 67.1839 5.47019 67.2106 5.47019 67.2431C5.47019 67.2777 5.45866 67.307 5.43561 67.3311C5.41255 67.3542 5.38216 67.3657 5.34443 67.3657ZM6.01577 68.3545C5.92355 68.3545 5.85228 68.3309 5.80198 68.2838C5.75168 68.2356 5.72652 68.1648 5.72652 68.0715V67.3186H5.92302V68.0668C5.92302 68.1067 5.93298 68.1376 5.95289 68.1596C5.97385 68.1816 6.00267 68.1926 6.03935 68.1926C6.08337 68.1926 6.12005 68.1811 6.14939 68.158L6.20441 68.2979C6.18136 68.3168 6.15306 68.3309 6.11952 68.3404C6.08599 68.3498 6.0514 68.3545 6.01577 68.3545ZM5.58819 67.6675V67.5103H6.14782V67.6675H5.58819ZM6.66207 68.3545C6.56985 68.3545 6.49859 68.3309 6.44828 68.2838C6.39798 68.2356 6.37283 68.1648 6.37283 68.0715V67.3186H6.56933V68.0668C6.56933 68.1067 6.57928 68.1376 6.59919 68.1596C6.62015 68.1816 6.64897 68.1926 6.68565 68.1926C6.72967 68.1926 6.76635 68.1811 6.79569 68.158L6.85071 68.2979C6.82766 68.3168 6.79936 68.3309 6.76583 68.3404C6.73229 68.3498 6.69771 68.3545 6.66207 68.3545ZM6.23449 67.6675V67.5103H6.79412V67.6675H6.23449ZM7.01236 68.3435V67.5041H7.20886V68.3435H7.01236ZM7.1114 67.3657C7.07472 67.3657 7.04432 67.3542 7.02022 67.3311C6.99716 67.3081 6.98564 67.2803 6.98564 67.2478C6.98564 67.2143 6.99716 67.1865 7.02022 67.1645C7.04432 67.1414 7.07472 67.1299 7.1114 67.1299C7.14808 67.1299 7.17794 67.1409 7.201 67.1629C7.2251 67.1839 7.23716 67.2106 7.23716 67.2431C7.23716 67.2777 7.22563 67.307 7.20257 67.3311C7.17952 67.3542 7.14912 67.3657 7.1114 67.3657ZM7.94308 67.4946C8.01015 67.4946 8.06989 67.5077 8.12229 67.5339C8.17574 67.5601 8.21766 67.6005 8.24805 67.655C8.27844 67.7084 8.29364 67.7776 8.29364 67.8625V68.3435H8.09714V67.8876C8.09714 67.8132 8.07932 67.7577 8.04369 67.721C8.00911 67.6843 7.96037 67.666 7.89749 67.666C7.85138 67.666 7.81051 67.6754 7.77488 67.6943C7.73925 67.7131 7.71147 67.7414 7.69156 67.7792C7.6727 67.8158 7.66327 67.8625 7.66327 67.9191V68.3435H7.46677V67.5041H7.65383V67.7304L7.62082 67.6613C7.65017 67.6078 7.69261 67.5669 7.74815 67.5386C7.80475 67.5093 7.86972 67.4946 7.94308 67.4946ZM8.92487 68.6595C8.84732 68.6595 8.77134 68.649 8.69693 68.628C8.62357 68.6081 8.56331 68.5788 8.51615 68.54L8.60418 68.3922C8.64086 68.4226 8.68697 68.4467 8.74252 68.4645C8.79911 68.4834 8.85622 68.4928 8.91386 68.4928C9.00609 68.4928 9.07368 68.4714 9.11665 68.4284C9.15962 68.3865 9.1811 68.3231 9.1811 68.2382V68.0888L9.19682 67.8986L9.19054 67.7084V67.5041H9.3776V68.2162C9.3776 68.3681 9.33883 68.4797 9.26128 68.551C9.18372 68.6233 9.07159 68.6595 8.92487 68.6595ZM8.89972 68.3058C8.82007 68.3058 8.74776 68.289 8.68278 68.2555C8.61885 68.2209 8.56802 68.1732 8.5303 68.1124C8.49362 68.0516 8.47528 67.9804 8.47528 67.8986C8.47528 67.8179 8.49362 67.7472 8.5303 67.6864C8.56802 67.6256 8.61885 67.5785 8.68278 67.5449C8.74776 67.5114 8.82007 67.4946 8.89972 67.4946C8.97098 67.4946 9.03491 67.5088 9.0915 67.5371C9.14809 67.5654 9.19316 67.6094 9.22669 67.6691C9.26128 67.7289 9.27857 67.8054 9.27857 67.8986C9.27857 67.9919 9.26128 68.0689 9.22669 68.1297C9.19316 68.1894 9.14809 68.234 9.0915 68.2633C9.03491 68.2916 8.97098 68.3058 8.89972 68.3058ZM8.92958 68.1391C8.97884 68.1391 9.02286 68.1292 9.06163 68.1093C9.10041 68.0883 9.13028 68.06 9.15124 68.0244C9.17324 67.9877 9.18425 67.9458 9.18425 67.8986C9.18425 67.8515 9.17324 67.8101 9.15124 67.7744C9.13028 67.7378 9.10041 67.71 9.06163 67.6911C9.02286 67.6712 8.97884 67.6613 8.92958 67.6613C8.88033 67.6613 8.83579 67.6712 8.79596 67.6911C8.75719 67.71 8.7268 67.7378 8.70479 67.7744C8.68383 67.8101 8.67335 67.8515 8.67335 67.8986C8.67335 67.9458 8.68383 67.9877 8.70479 68.0244C8.7268 68.06 8.75719 68.0883 8.79596 68.1093C8.83579 68.1292 8.88033 68.1391 8.92958 68.1391ZM10.4068 68.3592C10.3303 68.3592 10.2617 68.3466 10.2009 68.3215C10.1401 68.2963 10.0924 68.2618 10.0578 68.2177C10.0232 68.1737 10.0059 68.1229 10.0059 68.0653C10.0059 68.0129 10.0175 67.9657 10.0405 67.9238C10.0636 67.8819 10.1003 67.842 10.1506 67.8043C10.2009 67.7655 10.2653 67.7268 10.3439 67.688C10.4058 67.6576 10.454 67.6309 10.4885 67.6078C10.5242 67.5848 10.5488 67.5627 10.5624 67.5418C10.5771 67.5208 10.5844 67.4988 10.5844 67.4758C10.5844 67.4443 10.5734 67.4192 10.5514 67.4003C10.5294 67.3804 10.498 67.3704 10.4571 67.3704C10.4131 67.3704 10.3785 67.3814 10.3534 67.4034C10.3292 67.4244 10.3172 67.4522 10.3172 67.4868C10.3172 67.5046 10.3203 67.5219 10.3266 67.5386C10.334 67.5554 10.3465 67.5743 10.3644 67.5952C10.3822 67.6162 10.4078 67.6429 10.4414 67.6754L11.023 68.2335L10.9146 68.3608L10.2858 67.7571C10.2501 67.7226 10.2213 67.6906 10.1993 67.6613C10.1773 67.6319 10.1616 67.6036 10.1521 67.5764C10.1427 67.5481 10.138 67.5193 10.138 67.4899C10.138 67.4386 10.1511 67.3935 10.1773 67.3547C10.2035 67.3149 10.2407 67.2845 10.2889 67.2635C10.3371 67.2415 10.3932 67.2305 10.4571 67.2305C10.5168 67.2305 10.5682 67.2405 10.6112 67.2604C10.6552 67.2793 10.6892 67.307 10.7133 67.3437C10.7385 67.3793 10.7511 67.4223 10.7511 67.4726C10.7511 67.5166 10.7401 67.5575 10.7181 67.5952C10.696 67.6319 10.6615 67.667 10.6143 67.7006C10.5682 67.7341 10.5064 67.7692 10.4288 67.8059C10.3712 67.8342 10.3256 67.8609 10.292 67.8861C10.2585 67.9112 10.2344 67.9364 10.2197 67.9615C10.2051 67.9867 10.1977 68.0144 10.1977 68.0448C10.1977 68.0752 10.2066 68.1019 10.2244 68.125C10.2433 68.1481 10.2695 68.1664 10.303 68.18C10.3366 68.1926 10.3759 68.1989 10.4209 68.1989C10.488 68.1989 10.5488 68.1842 10.6033 68.1549C10.6588 68.1245 10.7055 68.0794 10.7432 68.0197C10.7809 67.9599 10.8082 67.8861 10.825 67.798L10.9837 67.8499C10.9617 67.9557 10.9235 68.0469 10.869 68.1234C10.8155 68.1989 10.7495 68.257 10.6709 68.2979C10.5923 68.3388 10.5043 68.3592 10.4068 68.3592ZM11.959 68.3435L11.478 67.2431H11.6996L12.1288 68.2382H12.0015L12.4353 67.2431H12.6397L12.1602 68.3435H11.959ZM13.1912 68.3435V68.1737L13.1802 68.1376V67.8405C13.1802 67.7828 13.1629 67.7383 13.1283 67.7068C13.0937 67.6744 13.0413 67.6581 12.9711 67.6581C12.924 67.6581 12.8773 67.6654 12.8312 67.6801C12.7862 67.6948 12.7479 67.7152 12.7165 67.7414L12.6394 67.5984C12.6845 67.5638 12.7379 67.5381 12.7998 67.5213C12.8627 67.5035 12.9276 67.4946 12.9947 67.4946C13.1163 67.4946 13.2101 67.524 13.2761 67.5827C13.3432 67.6403 13.3767 67.7299 13.3767 67.8515V68.3435H13.1912ZM12.9271 68.3545C12.8642 68.3545 12.8092 68.344 12.762 68.3231C12.7149 68.3011 12.6782 68.2712 12.652 68.2335C12.6269 68.1947 12.6143 68.1512 12.6143 68.103C12.6143 68.0558 12.6253 68.0134 12.6473 67.9757C12.6703 67.9379 12.7076 67.9081 12.7589 67.8861C12.8103 67.864 12.8784 67.853 12.9633 67.853H13.2069V67.9835H12.9774C12.9103 67.9835 12.8653 67.9945 12.8422 68.0165C12.8192 68.0375 12.8076 68.0637 12.8076 68.0951C12.8076 68.1308 12.8218 68.1591 12.8501 68.18C12.8784 68.201 12.9177 68.2115 12.968 68.2115C13.0162 68.2115 13.0592 68.2005 13.0969 68.1784C13.1357 68.1564 13.1634 68.1239 13.1802 68.081L13.2132 68.1989C13.1943 68.2481 13.1603 68.2864 13.111 68.3136C13.0628 68.3409 13.0015 68.3545 12.9271 68.3545ZM13.6289 68.3435V67.1771H13.8254V68.3435H13.6289ZM14.3065 68.3435L13.9465 67.5041H14.1509L14.4606 68.2445H14.36L14.6806 67.5041H14.8693L14.5093 68.3435H14.3065ZM15.3636 68.3545C15.2704 68.3545 15.1886 68.3362 15.1184 68.2995C15.0492 68.2618 14.9953 68.2104 14.9565 68.1454C14.9188 68.0805 14.8999 68.0066 14.8999 67.9238C14.8999 67.8399 14.9182 67.7661 14.9549 67.7021C14.9927 67.6372 15.044 67.5863 15.109 67.5496C15.175 67.513 15.2499 67.4946 15.3338 67.4946C15.4155 67.4946 15.4884 67.5124 15.5523 67.5481C15.6162 67.5837 15.6665 67.634 15.7032 67.699C15.7399 67.764 15.7582 67.8405 15.7582 67.9285C15.7582 67.9369 15.7577 67.9463 15.7566 67.9568C15.7566 67.9673 15.7561 67.9772 15.7551 67.9867H15.0555V67.8562H15.6513L15.5743 67.8971C15.5753 67.8488 15.5654 67.8064 15.5444 67.7697C15.5235 67.733 15.4946 67.7042 15.458 67.6833C15.4223 67.6623 15.3809 67.6518 15.3338 67.6518C15.2856 67.6518 15.2431 67.6623 15.2064 67.6833C15.1708 67.7042 15.1425 67.7336 15.1216 67.7713C15.1016 67.808 15.0917 67.8515 15.0917 67.9018V67.9332C15.0917 67.9835 15.1032 68.0281 15.1263 68.0668C15.1493 68.1056 15.1818 68.1355 15.2237 68.1564C15.2657 68.1774 15.3139 68.1879 15.3684 68.1879C15.4155 68.1879 15.458 68.1805 15.4957 68.1659C15.5334 68.1512 15.567 68.1281 15.5963 68.0967L15.7016 68.2177C15.6639 68.2618 15.6162 68.2958 15.5586 68.3199C15.502 68.343 15.437 68.3545 15.3636 68.3545ZM16.2063 68.3545C16.1361 68.3545 16.0685 68.3456 16.0036 68.3278C15.9396 68.3089 15.8888 68.2864 15.8511 68.2602L15.9265 68.1108C15.9643 68.135 16.0093 68.1549 16.0617 68.1706C16.1141 68.1863 16.1665 68.1942 16.2189 68.1942C16.2808 68.1942 16.3253 68.1858 16.3525 68.169C16.3808 68.1522 16.395 68.1297 16.395 68.1014C16.395 68.0784 16.3856 68.0611 16.3667 68.0495C16.3478 68.037 16.3232 68.0275 16.2928 68.0212C16.2624 68.015 16.2284 68.0092 16.1906 68.004C16.1539 67.9987 16.1167 67.9919 16.079 67.9835C16.0423 67.9741 16.0088 67.961 15.9784 67.9442C15.948 67.9264 15.9234 67.9028 15.9045 67.8735C15.8857 67.8441 15.8762 67.8054 15.8762 67.7571C15.8762 67.7037 15.8914 67.6576 15.9218 67.6188C15.9522 67.579 15.9947 67.5486 16.0491 67.5276C16.1047 67.5056 16.1702 67.4946 16.2456 67.4946C16.3022 67.4946 16.3594 67.5009 16.417 67.5135C16.4746 67.5261 16.5223 67.5439 16.56 67.5669L16.4846 67.7163C16.4448 67.6922 16.4044 67.6759 16.3635 67.6675C16.3237 67.6581 16.2839 67.6534 16.2441 67.6534C16.1843 67.6534 16.1398 67.6623 16.1105 67.6801C16.0822 67.6979 16.068 67.7205 16.068 67.7477C16.068 67.7729 16.0774 67.7917 16.0963 67.8043C16.1152 67.8169 16.1398 67.8268 16.1702 67.8342C16.2006 67.8415 16.2341 67.8478 16.2708 67.853C16.3085 67.8572 16.3457 67.864 16.3824 67.8735C16.4191 67.8829 16.4526 67.896 16.483 67.9128C16.5145 67.9285 16.5396 67.951 16.5585 67.9804C16.5773 68.0097 16.5868 68.048 16.5868 68.0951C16.5868 68.1475 16.5711 68.1931 16.5396 68.2319C16.5092 68.2707 16.4657 68.3011 16.4091 68.3231C16.3525 68.344 16.2849 68.3545 16.2063 68.3545Z" fill="white"/>
<path fill-rule="evenodd" clip-rule="evenodd" d="M71.1689 22.9183C71.1637 16.2452 71.6248 15.4421 68.8817 21.2075C68.9066 20.1765 68.0407 18.725 68.9459 17.1766C70.3318 16.2059 71.5685 16.5936 72.6492 18.3386C73.4182 20.6769 72.927 22.2004 71.1689 22.9196V22.9183ZM118.852 25.3078C118.113 22.655 116.741 20.2459 114.451 18.1905L106.863 14.5107L101.702 12.7095L100.419 9.40173C99.3077 8.06815 98.2034 7.12234 97.1187 6.64419C96.8423 7.27299 87.8806 0.595915 91.8342 3.93773L77.977 0.990225L66.2407 0.0745344C62.4627 -0.154716 58.7907 0.117764 55.3271 1.27187C57.689 1.73168 60.6182 2.77707 60.706 3.64298C58.0847 3.49102 55.6572 3.76219 53.4708 4.54557L44.7384 7.92668L36.0347 12.4619L26.5189 20.2145L15.7834 33.4036C21.8618 27.5688 22.5286 23.1816 30.9362 21.8297C32.799 19.7324 34.8007 17.9888 36.8797 16.4377L42.8376 12.23L47.4121 10.2192C54.6957 6.67563 62.2243 5.91582 69.9467 7.33848L66.0678 3.94165L73.3278 3.98095L82.8856 5.03026C97.6729 8.65634 100.933 14.2841 83.8262 13.2178C79.9342 13.544 76.4286 13.8584 72.0073 12.809L63.9901 12.4134L59.1327 13.4025C57.0026 13.9815 54.7559 14.2474 52.6259 14.8238L57.5174 17.2355L54.4822 19.8359L51.9041 22.9746C53.5036 22.1546 55.0389 21.3909 56.6345 20.5734L61.0754 18.3517L62.7181 22.2293C62.7836 20.4634 63.1622 18.8678 63.9875 17.5224L66.8394 16.5347C66.6259 17.8512 66.1267 19.1101 65.1102 20.2643L66.1202 22.8816L60.4099 24.8479L54.9407 26.995L62.5334 26.2221L71.3222 24.7169L76.333 23.2511C78.6307 22.279 80.0927 20.2878 80.7123 17.2761C78.9123 18.966 77.0456 20.483 74.7086 20.7922C75.8509 19.7049 76.0225 18.2338 75.7566 16.5818L86.8509 15.8496L95.307 16.3709L103.153 17.6102L109.988 19.7141C111.579 20.3992 113.165 21.5376 114.737 23.3375C116.369 25.5187 116.809 28.0601 116.867 30.7718C114.967 29.336 113.375 28.2579 111.512 27.6789L105.735 26.5876L100.827 26.5902L95.772 27.3631L91.229 28.8841L85.9078 30.7076L79.701 33.1114L73.9501 35.8139L77.6312 34.3861L73.9448 35.8166L73.9501 35.8139L73.4601 36.0052L75.0321 34.7424L77.0574 32.4761C76.1063 32.7603 74.5933 33.4219 73.9291 33.621L70.3528 37.2091C69.5105 38.485 69.686 39.4623 70.1891 40.3767L75.1605 38.6737L81.049 35.4406L89.5862 32.1329L96.5397 29.9137C101.416 28.6915 104.746 28.2972 106.521 29.4906C102.718 30.1063 99.4689 30.6342 95.1039 31.3403C89.6727 33.2254 84.3698 35.4432 79.2569 38.1536C81.9948 37.627 84.6148 37.2445 86.4514 37.8602C90.5871 38.4772 92.0372 41.2439 91.9783 45.2224C92.1001 47.8227 92.9961 59.1961 95.1459 60.0136C96.7428 60.6188 95.8022 60.3738 95.493 56.6954L95.2127 45.5145C95.2572 40.8182 97.5497 36.4637 101.3 33.0014C103.209 32.3595 105.116 31.7176 107.028 31.077L109.642 30.1849L111.615 30.2504C114.33 30.5451 116.353 33.0892 117.692 37.8759L119.343 31.7713C119.655 29.898 119.59 27.802 118.846 25.3091L118.852 25.3078Z" fill="white"/>
<path fill-rule="evenodd" clip-rule="evenodd" d="M109.594 0.261865C109.594 0.294615 109.592 0.324744 109.589 0.349634C109.585 0.374524 109.58 0.394175 109.571 0.409895C109.564 0.425615 109.552 0.436095 109.54 0.442645C109.529 0.449195 109.517 0.453124 109.501 0.453124H108.527V3.46219C108.527 3.47791 108.523 3.4897 108.515 3.50018C108.507 3.51066 108.495 3.51983 108.478 3.52638C108.46 3.53293 108.436 3.53818 108.406 3.54211C108.379 3.54604 108.339 3.54865 108.296 3.54865C108.253 3.54865 108.216 3.54604 108.186 3.54211C108.155 3.53818 108.132 3.53293 108.114 3.52638C108.096 3.51983 108.085 3.51066 108.077 3.50018C108.069 3.4897 108.065 3.47791 108.065 3.46219V0.453124H107.091C107.075 0.453124 107.062 0.449195 107.051 0.442645C107.04 0.436095 107.031 0.424305 107.024 0.409895C107.015 0.394175 107.011 0.374524 107.006 0.349634C107 0.324744 106.999 0.294615 106.999 0.261865C106.999 0.227805 107.002 0.197674 107.006 0.171474C107.011 0.145274 107.015 0.124314 107.024 0.107284C107.031 0.0915637 107.041 0.0797744 107.051 0.0732244C107.062 0.0666744 107.075 0.0627441 107.091 0.0627441H109.502C109.518 0.0627441 109.529 0.0666744 109.542 0.0732244C109.554 0.0797744 109.564 0.0928737 109.572 0.107284C109.58 0.124314 109.586 0.145274 109.59 0.171474C109.594 0.197674 109.596 0.226495 109.596 0.261865H109.594Z" fill="white"/>
<path fill-rule="evenodd" clip-rule="evenodd" d="M113.868 3.46359C113.868 3.478 113.865 3.4911 113.858 3.50158C113.85 3.51206 113.838 3.52123 113.82 3.52647C113.801 3.53302 113.776 3.53826 113.747 3.5435C113.72 3.54743 113.683 3.55005 113.637 3.55005C113.592 3.55005 113.558 3.54743 113.527 3.5435C113.496 3.53826 113.472 3.53433 113.454 3.52647C113.438 3.51992 113.425 3.51206 113.417 3.50158C113.411 3.4911 113.406 3.478 113.406 3.46359V0.440113H113.4L112.178 3.47538C112.172 3.48848 112.165 3.49896 112.156 3.50813C112.145 3.51599 112.131 3.52516 112.111 3.5304C112.093 3.53695 112.071 3.54088 112.044 3.5435C112.02 3.54743 111.988 3.54743 111.953 3.54743C111.917 3.54743 111.883 3.54481 111.856 3.54219C111.83 3.53826 111.807 3.53302 111.789 3.52778C111.772 3.52123 111.758 3.51337 111.747 3.5042C111.738 3.49503 111.731 3.48717 111.727 3.47538L110.559 0.440113H110.555V3.46359C110.555 3.478 110.552 3.4911 110.546 3.50158C110.537 3.51206 110.526 3.52123 110.507 3.52647C110.488 3.53302 110.463 3.53826 110.435 3.5435C110.406 3.54743 110.368 3.55005 110.322 3.55005C110.276 3.55005 110.239 3.54743 110.21 3.5435C110.182 3.53826 110.157 3.53433 110.141 3.52647C110.124 3.51992 110.111 3.51206 110.104 3.50158C110.1 3.4911 110.095 3.478 110.095 3.46359V0.271122C110.095 0.196452 110.115 0.142742 110.154 0.111302C110.196 0.0798621 110.241 0.0628327 110.289 0.0628327H110.572C110.63 0.0628327 110.681 0.0693834 110.724 0.0798634C110.769 0.0903434 110.805 0.106063 110.839 0.130953C110.872 0.155843 110.898 0.184662 110.921 0.220032C110.941 0.255402 110.962 0.297323 110.978 0.345793L111.97 2.85837H111.983L113.015 0.353653C113.035 0.299943 113.058 0.254092 113.082 0.216102C113.106 0.178112 113.13 0.147982 113.158 0.125712C113.188 0.103442 113.217 0.0864128 113.254 0.0772428C113.288 0.0680728 113.327 0.0615234 113.373 0.0615234H113.67C113.696 0.0615234 113.724 0.066763 113.747 0.073313C113.771 0.082483 113.793 0.0942721 113.81 0.111302C113.829 0.128332 113.842 0.150603 113.851 0.175493C113.863 0.201693 113.868 0.233133 113.868 0.269813V3.46228V3.46359Z" fill="white"/>
</svg>
